<svg version="1.1" xmlns="http://www.w3.org/2000/svg" viewBox="0 0 882 308" width="882" height="308" class="excalidraw-svg"><!-- svg-source:excalidraw --><metadata></metadata><defs><style class="style-fonts">
      </style></defs><rect x="0" y="0" width="882" height="308" fill="#ffffff"></rect><g transform="translate(10 105) rotate(0 142.5 88.5)" stroke="none"><path fill="#1e1e1e" d="M -0.09,-1.55 Q -0.09,-1.55 4.50,-1.81 9.10,-2.06 13.96,-2.16 18.82,-2.26 27.50,-2.29 36.18,-2.33 45.88,-2.62 55.58,-2.92 65.15,-3.61 74.71,-4.31 80.21,-4.89 85.70,-5.47 98.12,-6.58 110.54,-7.69 119.57,-8.16 128.61,-8.63 134.75,-8.83 140.89,-9.02 144.65,-9.11 148.41,-9.19 150.59,-9.23 152.76,-9.26 158.65,-8.70 164.53,-8.13 169.84,-7.90 175.15,-7.66 180.04,-7.27 184.92,-6.88 190.69,-6.72 196.46,-6.55 202.71,-5.91 208.96,-5.26 215.01,-4.98 221.06,-4.71 227.36,-4.60 233.67,-4.48 236.93,-4.43 240.19,-4.38 242.44,-4.36 244.68,-4.34 245.93,-4.46 247.17,-4.57 249.13,-4.57 251.09,-4.57 252.50,-4.66 253.91,-4.75 256.24,-4.69 258.56,-4.63 260.12,-4.70 261.68,-4.76 262.92,-4.85 264.16,-4.93 265.26,-5.01 266.37,-5.09 267.70,-5.14 269.03,-5.19 270.82,-5.31 272.61,-5.43 274.16,-5.42 275.71,-5.40 276.93,-5.43 278.16,-5.46 279.30,-5.73 280.44,-5.99 282.14,-6.01 283.84,-6.03 285.08,-5.15 286.32,-4.26 286.69,-1.70 287.06,0.86 287.05,2.92 287.05,4.97 286.97,7.28 286.89,9.59 286.82,13.45 286.75,17.31 286.70,22.10 286.64,26.90 286.60,29.52 286.55,32.13 286.23,36.17 285.91,40.21 285.76,43.60 285.62,46.99 285.26,49.94 284.90,52.89 284.74,56.36 284.59,59.84 284.53,61.90 284.47,63.97 284.51,65.70 284.56,67.44 284.22,69.98 283.89,72.53 283.75,75.53 283.61,78.53 283.54,81.25 283.47,83.97 283.43,86.86 283.40,89.74 283.38,92.40 283.37,95.06 283.36,97.63 283.34,100.20 283.13,101.99 282.91,103.79 282.90,105.02 282.89,106.26 282.91,107.62 282.94,108.98 282.93,110.71 282.92,112.43 282.89,114.32 282.86,116.21 282.94,117.30 283.02,118.39 283.10,121.02 283.18,123.64 283.06,126.04 282.95,128.45 282.86,144.13 282.78,159.81 282.71,167.05 282.65,174.29 282.60,177.37 282.56,180.45 282.52,180.70 282.48,180.94 282.36,181.17 282.24,181.39 282.05,181.57 281.87,181.74 281.64,181.85 281.41,181.95 281.16,181.98 280.91,182.01 280.66,181.95 280.42,181.90 280.20,181.77 279.98,181.64 279.82,181.44 279.66,181.25 279.56,181.02 279.47,180.78 279.46,180.53 279.44,180.28 279.51,180.03 279.58,179.79 279.72,179.58 279.86,179.37 280.06,179.22 280.26,179.07 280.50,178.99 280.74,178.90 281.00,178.90 281.25,178.90 281.49,178.99 281.73,179.07 281.93,179.22 282.13,179.37 282.27,179.58 282.41,179.79 282.48,180.03 282.55,180.28 282.53,180.53 282.52,180.78 282.43,181.02 282.33,181.25 282.17,181.44 282.01,181.64 281.79,181.77 281.57,181.90 281.33,181.95 281.08,182.01 280.83,181.98 280.58,181.95 280.35,181.84 280.12,181.74 279.93,181.56 279.75,181.39 279.63,181.17 279.51,180.94 279.47,180.70 279.43,180.45 279.43,180.45 279.43,180.45 279.39,177.37 279.34,174.29 279.28,167.05 279.21,159.81 279.13,144.13 279.04,128.44 278.93,126.04 278.81,123.64 278.90,121.01 278.98,118.37 279.07,117.28 279.16,116.19 279.15,114.29 279.14,112.39 279.17,110.62 279.20,108.84 279.34,107.39 279.47,105.93 279.70,104.60 279.94,103.27 280.30,101.73 280.66,100.19 280.66,97.62 280.65,95.05 280.66,92.38 280.66,89.71 280.67,86.82 280.68,83.92 280.72,81.17 280.76,78.41 280.87,75.29 280.98,72.17 281.25,69.78 281.51,67.39 281.60,65.64 281.70,63.89 281.76,61.80 281.83,59.72 281.96,56.14 282.10,52.56 282.41,49.72 282.73,46.89 282.83,43.44 282.93,40.00 283.18,36.06 283.43,32.13 283.38,29.52 283.33,26.91 283.26,22.11 283.19,17.32 283.09,13.49 282.98,9.66 282.83,7.42 282.68,5.17 282.50,3.27 282.31,1.37 281.88,0.11 281.45,-1.15 279.81,-0.84 278.18,-0.53 276.94,-0.56 275.71,-0.59 274.16,-0.57 272.61,-0.56 270.82,-0.68 269.03,-0.80 267.70,-0.85 266.37,-0.90 265.26,-0.98 264.16,-1.06 262.92,-1.14 261.68,-1.23 260.12,-1.30 258.56,-1.36 256.23,-1.30 253.91,-1.24 252.50,-1.34 251.09,-1.43 249.12,-1.44 247.15,-1.44 245.90,-1.58 244.66,-1.71 242.40,-1.73 240.15,-1.75 236.89,-1.80 233.62,-1.85 227.28,-1.97 220.94,-2.09 214.81,-2.36 208.69,-2.64 202.53,-3.28 196.38,-3.92 190.54,-4.09 184.71,-4.26 179.87,-4.64 175.04,-5.03 169.66,-5.27 164.28,-5.51 158.54,-6.07 152.81,-6.62 150.64,-6.58 148.47,-6.55 144.73,-6.46 140.98,-6.37 134.86,-6.17 128.75,-5.97 119.76,-5.49 110.77,-5.02 98.38,-3.90 85.99,-2.78 80.45,-2.19 74.91,-1.59 65.29,-0.87 55.67,-0.16 45.93,0.16 36.19,0.48 27.54,0.55 18.89,0.62 14.09,0.77 9.29,0.91 4.69,1.23 0.09,1.55 -0.09,1.54 -0.27,1.53 -0.45,1.48 -0.63,1.42 -0.79,1.32 -0.96,1.23 -1.09,1.09 -1.22,0.96 -1.32,0.80 -1.42,0.64 -1.47,0.46 -1.53,0.28 -1.54,0.09 -1.55,-0.09 -1.52,-0.27 -1.49,-0.46 -1.41,-0.63 -1.33,-0.80 -1.22,-0.95 -1.10,-1.10 -0.95,-1.21 -0.81,-1.33 -0.63,-1.41 -0.46,-1.49 -0.28,-1.52 -0.09,-1.55 -0.09,-1.55 L -0.09,-1.55 Z"></path></g><g transform="translate(291 287) rotate(0 -135.5 -93)" stroke="none"><path fill="#1e1e1e" d="M 0,1.58 Q 0,1.58 -2.01,1.57 -4.02,1.56 -6.14,1.25 -8.25,0.95 -10.47,0.80 -12.69,0.66 -15.44,0.29 -18.19,-0.07 -21.63,-0.52 -25.07,-0.97 -29.12,-1.45 -33.16,-1.93 -37.14,-2.14 -41.12,-2.34 -44.53,-2.43 -47.95,-2.52 -52.56,-2.56 -57.17,-2.60 -64.28,-2.34 -71.39,-2.07 -76.45,-1.95 -81.50,-1.84 -86.53,-1.79 -91.56,-1.75 -95.71,-1.73 -99.86,-1.71 -103.06,-1.70 -106.26,-1.69 -108.77,-1.69 -111.28,-1.68 -113.50,-1.68 -115.72,-1.68 -118.67,-1.68 -121.63,-1.68 -124.03,-1.68 -126.44,-1.68 -131.28,-2.26 -136.12,-2.84 -139.60,-3.38 -143.08,-3.91 -145.45,-4.43 -147.83,-4.95 -149.89,-5.16 -151.96,-5.37 -154.27,-5.46 -156.58,-5.55 -158.71,-5.58 -160.85,-5.62 -163.27,-5.93 -165.69,-6.24 -168.64,-6.37 -171.60,-6.49 -175.78,-6.84 -179.96,-7.18 -185.18,-7.61 -190.39,-8.05 -196.06,-8.52 -201.73,-8.99 -207.30,-9.48 -212.87,-9.97 -216.37,-10.17 -219.87,-10.38 -223.07,-10.46 -226.27,-10.55 -228.21,-10.55 -230.15,-10.55 -231.55,-10.45 -232.94,-10.36 -234.40,-10.29 -235.85,-10.21 -237.51,-10.46 -239.17,-10.71 -240.83,-10.82 -242.49,-10.92 -243.80,-10.91 -245.11,-10.89 -247.15,-10.80 -249.20,-10.70 -250.87,-10.72 -252.53,-10.75 -254.39,-10.80 -256.25,-10.86 -258.19,-10.92 -260.13,-10.98 -261.24,-10.91 -262.35,-10.84 -263.81,-11.25 -265.27,-11.67 -266.02,-12.79 -266.78,-13.91 -266.85,-16.93 -266.92,-19.94 -267.15,-26.83 -267.39,-33.72 -267.46,-38.11 -267.53,-42.49 -267.53,-45.79 -267.53,-49.10 -267.52,-52.52 -267.50,-55.94 -267.48,-58.83 -267.46,-61.72 -267.44,-66.69 -267.42,-71.65 -267.41,-76.06 -267.39,-80.48 -267.38,-83.50 -267.37,-86.52 -267.36,-89.53 -267.35,-92.54 -267.64,-98.68 -267.92,-104.82 -268.03,-111.48 -268.15,-118.15 -268.48,-121.49 -268.82,-124.84 -268.96,-127.75 -269.11,-130.67 -269.73,-134.11 -270.36,-137.55 -270.63,-140.83 -270.91,-144.12 -271.03,-146.67 -271.14,-149.21 -271.19,-152.02 -271.24,-154.84 -271.54,-157.10 -271.84,-159.37 -271.98,-161.85 -272.11,-164.33 -272.17,-166.53 -272.23,-168.73 -272.32,-170.53 -272.41,-172.33 -272.50,-173.96 -272.59,-175.59 -272.79,-177.27 -272.99,-178.95 -273.12,-180.65 -273.26,-182.35 -273.29,-183.98 -273.33,-185.61 -273.27,-185.98 -273.21,-186.36 -273.03,-186.69 -272.85,-187.02 -272.58,-187.28 -272.30,-187.54 -271.96,-187.70 -271.62,-187.86 -271.24,-187.90 -270.87,-187.94 -270.50,-187.86 -270.13,-187.78 -269.81,-187.58 -269.49,-187.39 -269.24,-187.10 -269.00,-186.81 -268.86,-186.46 -268.72,-186.11 -268.70,-185.74 -268.68,-185.36 -268.78,-185.00 -268.88,-184.63 -269.09,-184.32 -269.30,-184.01 -269.60,-183.78 -269.90,-183.55 -270.26,-183.43 -270.62,-183.31 -271.00,-183.31 -271.37,-183.31 -271.73,-183.43 -272.09,-183.55 -272.39,-183.78 -272.69,-184.01 -272.90,-184.32 -273.11,-184.63 -273.21,-185.00 -273.31,-185.36 -273.29,-185.74 -273.27,-186.11 -273.13,-186.46 -272.99,-186.81 -272.75,-187.10 -272.50,-187.39 -272.18,-187.58 -271.86,-187.78 -271.49,-187.86 -271.12,-187.94 -270.75,-187.90 -270.37,-187.86 -270.03,-187.70 -269.69,-187.54 -269.41,-187.28 -269.14,-187.02 -268.96,-186.69 -268.78,-186.36 -268.72,-185.98 -268.66,-185.61 -268.66,-185.61 -268.66,-185.61 -268.70,-183.98 -268.73,-182.35 -268.86,-180.66 -269.00,-178.96 -269.18,-177.28 -269.37,-175.61 -269.44,-173.99 -269.51,-172.37 -269.55,-170.58 -269.60,-168.80 -269.54,-166.64 -269.49,-164.47 -269.36,-162.09 -269.23,-159.71 -268.92,-157.30 -268.61,-154.89 -268.56,-152.11 -268.51,-149.33 -268.39,-146.84 -268.28,-144.34 -268.02,-141.18 -267.75,-138.02 -267.10,-134.41 -266.46,-130.80 -266.31,-127.95 -266.17,-125.10 -265.82,-121.65 -265.48,-118.20 -265.35,-111.57 -265.22,-104.94 -264.93,-98.74 -264.63,-92.55 -264.63,-89.54 -264.62,-86.52 -264.60,-83.50 -264.59,-80.48 -264.57,-76.07 -264.55,-71.66 -264.52,-66.69 -264.50,-61.73 -264.45,-58.85 -264.41,-55.96 -264.34,-52.56 -264.27,-49.16 -264.15,-45.88 -264.03,-42.60 -263.80,-38.26 -263.58,-33.92 -263.12,-27.04 -262.67,-20.16 -262.51,-17.66 -262.35,-15.15 -261.24,-15.08 -260.13,-15.01 -258.18,-15.07 -256.24,-15.13 -254.38,-15.18 -252.52,-15.23 -250.84,-15.25 -249.17,-15.26 -247.06,-15.10 -244.95,-14.94 -243.59,-14.82 -242.23,-14.70 -240.34,-14.56 -238.44,-14.42 -237.13,-14.09 -235.83,-13.76 -234.37,-13.67 -232.91,-13.58 -231.50,-13.46 -230.10,-13.33 -228.15,-13.26 -226.20,-13.18 -222.96,-13.09 -219.72,-13.00 -216.18,-12.79 -212.65,-12.58 -207.08,-12.09 -201.51,-11.61 -195.84,-11.14 -190.18,-10.66 -184.96,-10.23 -179.75,-9.80 -175.62,-9.46 -171.49,-9.12 -168.42,-8.98 -165.35,-8.85 -163.07,-8.55 -160.80,-8.25 -158.63,-8.21 -156.47,-8.17 -154.08,-8.07 -151.70,-7.98 -149.48,-7.75 -147.26,-7.52 -144.97,-7.01 -142.68,-6.51 -139.24,-5.98 -135.80,-5.45 -131.12,-4.88 -126.44,-4.31 -124.03,-4.31 -121.63,-4.31 -118.67,-4.31 -115.72,-4.31 -113.50,-4.32 -111.29,-4.32 -108.78,-4.32 -106.27,-4.33 -103.07,-4.34 -99.87,-4.35 -95.73,-4.37 -91.59,-4.39 -86.58,-4.44 -81.56,-4.49 -76.53,-4.61 -71.49,-4.73 -64.32,-5.00 -57.15,-5.28 -52.52,-5.25 -47.88,-5.22 -44.43,-5.14 -40.98,-5.06 -36.91,-4.86 -32.85,-4.67 -28.79,-4.21 -24.73,-3.75 -21.28,-3.33 -17.83,-2.92 -15.18,-2.61 -12.53,-2.29 -10.17,-2.20 -7.81,-2.10 -5.91,-1.83 -4.02,-1.56 -2.01,-1.57 0,-1.58 0.18,-1.55 0.37,-1.53 0.55,-1.46 0.73,-1.40 0.89,-1.29 1.04,-1.18 1.17,-1.04 1.30,-0.89 1.39,-0.72 1.47,-0.56 1.52,-0.37 1.57,-0.19 1.57,0.00 1.57,0.19 1.52,0.37 1.47,0.56 1.39,0.72 1.30,0.89 1.17,1.04 1.04,1.18 0.89,1.29 0.73,1.40 0.55,1.46 0.37,1.53 0.18,1.55 -0.00,1.58 -0.00,1.58 L 0,1.58 Z"></path></g><g transform="translate(583 99) rotate(0 144.5 98)" stroke="none"><path fill="#1e1e1e" d="M 0,-1.56 Q 0,-1.56 2.58,-1.52 5.17,-1.49 10.01,-1.46 14.84,-1.44 24.42,-0.85 33.99,-0.25 52.99,0.86 71.99,1.98 82.91,2.17 93.83,2.36 109.05,1.01 124.27,-0.33 133.35,-1.19 142.44,-2.05 148.01,-2.70 153.58,-3.35 160.09,-3.05 166.60,-2.76 170.17,-2.63 173.75,-2.50 176.20,-2.16 178.66,-1.81 182.24,-1.37 185.83,-0.94 189.38,-0.47 192.93,-0.00 196.68,0.19 200.44,0.38 202.91,0.47 205.37,0.55 209.00,0.59 212.63,0.63 219.94,0.93 227.26,1.23 232.40,1.65 237.54,2.07 240.28,2.25 243.02,2.42 246.74,2.50 250.47,2.57 256.94,2.60 263.42,2.63 268.22,2.94 273.03,3.24 275.34,3.37 277.65,3.49 278.91,3.42 280.18,3.35 281.28,3.27 282.38,3.18 284.18,3.64 285.97,4.10 286.87,6.34 287.77,8.57 288.33,13.91 288.89,19.25 289.37,25.18 289.85,31.12 290.03,35.96 290.22,40.81 290.28,44.31 290.35,47.81 289.79,55.40 289.23,62.99 288.69,71.35 288.16,79.71 287.93,86.69 287.70,93.68 287.60,101.82 287.50,109.96 287.16,116.61 286.83,123.26 286.39,128.40 285.96,133.54 285.49,143.17 285.02,152.80 284.82,159.18 284.62,165.57 284.53,169.44 284.44,173.30 284.12,177.29 283.79,181.27 283.69,183.23 283.58,185.19 283.64,186.58 283.69,187.98 283.70,189.71 283.72,191.43 283.76,193.04 283.81,194.64 283.55,196.14 283.30,197.65 282.75,198.60 282.20,199.56 280.31,200.38 278.43,201.20 276.84,201.25 275.25,201.30 272.86,201.18 270.48,201.06 268.72,200.78 266.95,200.50 265.79,200.44 264.62,200.39 262.45,200.22 260.28,200.05 257.90,199.94 255.52,199.83 251.29,199.47 247.06,199.10 241.78,198.35 236.51,197.59 231.11,196.68 225.71,195.77 220.26,194.80 214.80,193.82 210.77,193.12 206.73,192.41 199.61,191.82 192.50,191.23 185.74,190.98 178.98,190.73 171.80,190.61 164.62,190.50 158.08,190.16 151.55,189.83 144.75,189.39 137.95,188.96 134.50,188.77 131.04,188.59 128.15,188.51 125.26,188.43 121.45,188.40 117.64,188.36 115.15,188.35 112.66,188.33 109.88,188.33 107.11,188.32 104.20,188.32 101.29,188.31 99.19,188.32 97.10,188.33 93.33,188.32 89.56,188.32 87.10,188.32 84.64,188.32 82.15,188.32 79.67,188.31 76.02,188.31 72.38,188.31 67.38,188.31 62.38,188.31 56.81,188.31 51.24,188.31 45.70,188.31 40.17,188.31 36.67,188.31 33.17,188.31 30.82,188.31 28.47,188.31 26.03,188.31 23.60,188.31 21.41,188.31 19.23,188.31 17.42,188.37 15.61,188.44 14.44,188.09 13.26,187.74 12.51,186.73 11.75,185.72 11.90,181.59 12.05,177.46 12.75,171.51 13.45,165.55 14.63,157.84 15.80,150.13 16.60,143.16 17.39,136.19 18.32,129.74 19.25,123.30 19.64,117.17 20.03,111.05 20.21,106.71 20.38,102.38 20.46,95.66 20.54,88.94 20.57,84.64 20.61,80.34 20.34,76.85 20.07,73.35 19.95,70.67 19.84,67.99 19.51,64.88 19.18,61.78 18.75,58.74 18.32,55.70 18.14,52.92 17.95,50.13 17.59,47.28 17.23,44.43 16.79,41.20 16.34,37.96 15.87,34.58 15.40,31.19 15.11,29.45 14.83,27.72 14.71,25.79 14.59,23.85 14.58,21.30 14.58,18.75 14.30,16.61 14.03,14.48 13.78,13.23 13.53,11.99 13.37,10.85 13.22,9.71 13.05,6.54 12.88,3.36 12.94,3.02 12.99,2.69 13.15,2.38 13.31,2.08 13.56,1.85 13.81,1.61 14.12,1.47 14.42,1.32 14.76,1.28 15.10,1.25 15.44,1.32 15.77,1.39 16.06,1.57 16.36,1.74 16.58,2.00 16.80,2.26 16.93,2.58 17.06,2.89 17.08,3.23 17.10,3.58 17.01,3.91 16.92,4.23 16.72,4.52 16.53,4.80 16.26,5.01 15.99,5.22 15.67,5.33 15.34,5.44 15.00,5.44 14.66,5.44 14.34,5.33 14.01,5.22 13.74,5.02 13.47,4.81 13.27,4.53 13.08,4.25 12.99,3.92 12.90,3.59 12.92,3.25 12.93,2.91 13.06,2.59 13.18,2.27 13.40,2.01 13.62,1.75 13.92,1.57 14.21,1.39 14.54,1.32 14.88,1.25 15.22,1.28 15.56,1.32 15.87,1.46 16.18,1.60 16.42,1.84 16.67,2.07 16.83,2.37 17.00,2.67 17.05,3.01 17.11,3.35 17.11,3.35 17.11,3.35 17.09,5.70 17.06,8.05 16.95,9.85 16.84,11.64 16.85,12.87 16.86,14.09 17.19,16.40 17.52,18.71 17.59,21.21 17.65,23.71 17.70,25.54 17.75,27.38 17.88,29.10 18.00,30.82 18.48,34.21 18.95,37.61 19.40,40.85 19.84,44.10 20.21,47.03 20.58,49.95 20.76,52.65 20.94,55.34 21.38,58.42 21.81,61.50 22.15,64.68 22.50,67.87 22.62,70.51 22.73,73.14 23.02,76.75 23.30,80.36 23.27,84.66 23.25,88.97 23.19,95.72 23.13,102.48 22.97,106.85 22.82,111.22 22.45,117.46 22.08,123.69 21.20,130.10 20.32,136.51 19.58,143.54 18.83,150.58 17.74,158.24 16.65,165.90 16.07,171.75 15.50,177.60 15.59,181.58 15.68,185.55 17.45,185.62 19.23,185.68 21.41,185.68 23.60,185.68 26.03,185.68 28.47,185.68 30.82,185.68 33.17,185.68 36.67,185.68 40.17,185.68 45.70,185.68 51.24,185.68 56.81,185.68 62.38,185.68 67.38,185.68 72.38,185.68 76.02,185.68 79.67,185.68 82.15,185.67 84.64,185.67 87.10,185.67 89.56,185.67 93.33,185.67 97.10,185.67 99.20,185.68 101.29,185.68 104.20,185.68 107.11,185.69 109.90,185.69 112.68,185.70 115.17,185.71 117.66,185.72 121.49,185.75 125.33,185.79 128.26,185.86 131.18,185.94 134.65,186.12 138.12,186.30 144.90,186.72 151.69,187.15 158.17,187.47 164.66,187.80 171.87,187.90 179.08,187.99 185.90,188.23 192.72,188.47 199.96,189.05 207.21,189.62 211.25,190.29 215.30,190.96 220.75,191.88 226.19,192.80 231.56,193.64 236.93,194.47 242.11,195.12 247.29,195.77 251.42,195.99 255.55,196.22 257.96,196.15 260.37,196.08 262.71,196.02 265.05,195.96 266.37,196.14 267.69,196.32 269.08,196.60 270.46,196.87 272.79,196.72 275.11,196.56 277.33,196.59 279.55,196.63 279.88,195.61 280.21,194.60 280.28,192.99 280.34,191.39 280.41,189.61 280.48,187.84 280.64,186.42 280.81,184.99 280.98,183.02 281.16,181.06 281.48,177.15 281.80,173.24 281.88,169.37 281.96,165.49 282.16,159.08 282.36,152.67 282.82,142.99 283.29,133.32 283.71,128.23 284.13,123.13 284.45,116.53 284.77,109.93 284.85,101.76 284.94,93.59 285.14,86.56 285.35,79.54 285.85,71.16 286.34,62.78 286.85,55.33 287.36,47.89 287.23,44.42 287.10,40.96 286.82,36.19 286.55,31.42 285.95,25.54 285.35,19.66 284.73,14.81 284.11,9.95 283.21,8.35 282.31,6.74 281.18,6.61 280.05,6.48 278.78,6.30 277.50,6.12 275.18,5.99 272.86,5.86 268.13,5.56 263.40,5.26 256.91,5.23 250.42,5.20 246.63,5.12 242.85,5.04 240.09,4.87 237.33,4.69 232.24,4.27 227.15,3.86 219.88,3.56 212.60,3.26 208.94,3.22 205.28,3.18 202.79,3.10 200.30,3.01 196.44,2.81 192.58,2.60 189.05,2.13 185.51,1.66 181.90,1.23 178.28,0.80 175.97,0.46 173.65,0.13 170.06,0.01 166.47,-0.11 160.18,-0.41 153.89,-0.70 148.29,-0.04 142.69,0.61 133.60,1.48 124.51,2.35 109.15,3.72 93.79,5.09 82.81,4.91 71.83,4.74 52.82,3.65 33.82,2.55 24.33,2.00 14.84,1.44 10.01,1.46 5.17,1.49 2.58,1.52 0,1.56 -0.18,1.53 -0.37,1.51 -0.54,1.45 -0.72,1.38 -0.88,1.27 -1.03,1.16 -1.16,1.02 -1.28,0.88 -1.37,0.72 -1.46,0.55 -1.50,0.37 -1.55,0.18 -1.55,-0.00 -1.55,-0.18 -1.50,-0.37 -1.46,-0.55 -1.37,-0.72 -1.28,-0.88 -1.16,-1.02 -1.03,-1.16 -0.88,-1.27 -0.72,-1.38 -0.54,-1.45 -0.37,-1.51 -0.18,-1.53 0.00,-1.56 0.00,-1.56 L 0,-1.56 Z"></path></g><g transform="translate(141 63) rotate(0 19.5 -22)" stroke="none"><path fill="#1e1e1e" d="M -2.04,-0.45 Q -2.04,-0.45 -1.36,-3.01 -0.69,-5.58 0.20,-8.98 1.10,-12.38 2.38,-16.17 3.66,-19.96 4.51,-21.90 5.36,-23.84 5.94,-25.48 6.52,-27.13 7.38,-28.80 8.23,-30.48 8.44,-31.59 8.65,-32.69 9.09,-33.73 9.53,-34.77 10.36,-36.68 11.19,-38.60 12.43,-41.42 13.67,-44.24 14.72,-46.36 15.77,-48.48 16.46,-50.01 17.15,-51.54 17.27,-51.74 17.39,-51.95 17.56,-52.12 17.73,-52.29 17.93,-52.41 18.13,-52.54 18.36,-52.61 18.58,-52.68 18.82,-52.70 19.06,-52.71 19.29,-52.67 19.52,-52.63 19.74,-52.54 19.96,-52.44 20.15,-52.30 20.34,-52.15 20.48,-51.97 20.63,-51.78 20.73,-51.56 20.83,-51.35 20.88,-51.12 20.92,-50.88 20.91,-50.64 20.90,-50.41 20.83,-50.18 20.76,-49.95 22.10,-47.99 23.44,-46.03 24.36,-41.24 25.29,-36.44 26.22,-32.41 27.15,-28.38 28.09,-25.26 29.03,-22.14 29.52,-20.49 30.01,-18.84 31.24,-17.27 32.47,-15.70 34.29,-10.97 36.10,-6.25 37.37,-2.59 38.64,1.07 39.56,4.12 40.48,7.18 40.51,7.48 40.54,7.79 40.47,8.09 40.40,8.39 40.24,8.65 40.08,8.92 39.84,9.11 39.61,9.31 39.32,9.42 39.03,9.53 38.72,9.55 38.42,9.56 38.12,9.47 37.82,9.39 37.57,9.21 37.32,9.04 37.13,8.79 36.95,8.54 36.85,8.25 36.76,7.96 36.76,7.65 36.77,7.34 36.87,7.05 36.97,6.76 37.16,6.52 37.35,6.27 37.60,6.10 37.86,5.93 38.16,5.85 38.45,5.77 38.76,5.79 39.07,5.81 39.35,5.93 39.64,6.05 39.87,6.25 40.10,6.45 40.26,6.72 40.42,6.98 40.48,7.28 40.54,7.58 40.51,7.89 40.47,8.20 40.34,8.47 40.21,8.75 39.99,8.97 39.78,9.20 39.50,9.34 39.23,9.48 38.93,9.53 38.62,9.57 38.32,9.52 38.01,9.47 37.74,9.32 37.47,9.17 37.26,8.95 37.05,8.72 36.93,8.44 36.80,8.16 36.80,8.16 36.80,8.16 36.12,5.20 35.44,2.24 34.05,-1.32 32.67,-4.89 30.95,-9.05 29.23,-13.22 28.41,-14.42 27.60,-15.62 27.16,-16.79 26.72,-17.97 26.36,-19.57 25.99,-21.18 24.92,-24.37 23.86,-27.56 22.77,-31.62 21.69,-35.67 20.57,-40.44 19.46,-45.20 19.32,-46.52 19.18,-47.83 18.17,-49.69 17.15,-51.54 17.27,-51.74 17.39,-51.95 17.56,-52.12 17.73,-52.29 17.93,-52.41 18.13,-52.54 18.36,-52.61 18.58,-52.68 18.82,-52.70 19.06,-52.71 19.29,-52.67 19.52,-52.63 19.74,-52.54 19.96,-52.44 20.15,-52.30 20.34,-52.15 20.48,-51.97 20.63,-51.78 20.73,-51.56 20.83,-51.35 20.88,-51.12 20.92,-50.88 20.91,-50.64 20.90,-50.41 20.83,-50.18 20.76,-49.95 20.04,-48.44 19.32,-46.92 18.42,-44.59 17.51,-42.27 16.79,-40.64 16.06,-39.02 15.70,-37.78 15.35,-36.54 14.80,-35.58 14.26,-34.62 13.27,-33.13 12.28,-31.63 11.77,-30.25 11.27,-28.87 10.44,-27.41 9.62,-25.95 8.94,-24.27 8.26,-22.60 7.50,-20.78 6.75,-18.96 5.61,-15.26 4.47,-11.56 3.73,-8.16 2.99,-4.76 2.51,-2.15 2.04,0.45 1.96,0.69 1.87,0.93 1.73,1.14 1.60,1.35 1.41,1.52 1.23,1.69 1.00,1.81 0.78,1.94 0.54,2.00 0.30,2.07 0.04,2.08 -0.20,2.08 -0.45,2.03 -0.69,1.97 -0.92,1.86 -1.15,1.75 -1.34,1.58 -1.53,1.42 -1.68,1.22 -1.83,1.01 -1.92,0.78 -2.02,0.54 -2.05,0.29 -2.09,0.04 -2.07,-0.20 -2.04,-0.45 -2.04,-0.45 L -2.04,-0.45 Z"></path></g><g transform="translate(149 50) rotate(0 13 -1)" stroke="none"><path fill="#1e1e1e" d="M -0.33,-2.01 Q -0.33,-2.01 3.13,-2.49 6.59,-2.97 8.98,-3.15 11.37,-3.33 13.56,-3.38 15.75,-3.44 18.13,-3.44 20.50,-3.45 22.98,-3.55 25.46,-3.64 25.72,-3.60 25.98,-3.56 26.22,-3.44 26.46,-3.32 26.64,-3.12 26.83,-2.93 26.95,-2.69 27.06,-2.45 27.09,-2.18 27.12,-1.92 27.07,-1.65 27.01,-1.39 26.88,-1.16 26.74,-0.93 26.54,-0.76 26.34,-0.58 26.09,-0.48 25.84,-0.38 25.58,-0.36 25.31,-0.34 25.05,-0.41 24.79,-0.48 24.57,-0.63 24.35,-0.78 24.18,-0.99 24.02,-1.20 23.93,-1.45 23.84,-1.71 23.84,-1.97 23.84,-2.24 23.92,-2.50 24.00,-2.75 24.16,-2.97 24.32,-3.18 24.54,-3.33 24.76,-3.48 25.02,-3.56 25.28,-3.63 25.54,-3.62 25.81,-3.61 26.06,-3.51 26.31,-3.41 26.52,-3.24 26.72,-3.07 26.86,-2.84 27.00,-2.62 27.06,-2.36 27.12,-2.09 27.09,-1.83 27.07,-1.56 26.96,-1.32 26.85,-1.07 26.67,-0.88 26.48,-0.68 26.25,-0.56 26.01,-0.43 25.75,-0.38 25.49,-0.34 25.49,-0.34 25.49,-0.34 23.02,-0.37 20.55,-0.41 18.23,-0.33 15.91,-0.25 13.82,-0.09 11.73,0.05 9.46,0.36 7.20,0.67 3.76,1.34 0.33,2.01 0.08,2.02 -0.15,2.03 -0.39,1.98 -0.63,1.94 -0.86,1.83 -1.08,1.73 -1.27,1.57 -1.46,1.42 -1.61,1.22 -1.76,1.02 -1.86,0.80 -1.96,0.57 -2.00,0.33 -2.04,0.09 -2.02,-0.15 -2.00,-0.40 -1.92,-0.63 -1.84,-0.86 -1.71,-1.07 -1.58,-1.28 -1.41,-1.45 -1.23,-1.62 -1.02,-1.75 -0.80,-1.87 -0.57,-1.94 -0.33,-2.01 -0.33,-2.01 L -0.33,-2.01 Z"></path></g><g transform="translate(736 17) rotate(0 -0.5 27.5)" stroke="none"><path fill="#1e1e1e" d="M 1.79,0 Q 1.79,0 1.72,2.87 1.66,5.75 1.32,10.18 0.98,14.62 0.83,18.75 0.67,22.88 0.60,26.65 0.52,30.42 0.48,34.33 0.44,38.23 0.70,41.84 0.96,45.46 1.35,48.14 1.74,50.81 1.73,51.36 1.72,51.91 1.72,52.10 1.73,52.29 1.69,52.47 1.65,52.66 1.56,52.83 1.48,53.00 1.36,53.14 1.24,53.29 1.08,53.40 0.93,53.51 0.76,53.58 0.58,53.65 0.40,53.68 0.21,53.71 0.02,53.69 -0.16,53.67 -0.34,53.61 -0.51,53.55 -0.67,53.45 -0.83,53.34 -0.96,53.21 -1.09,53.07 -1.18,52.90 -1.28,52.74 -1.33,52.56 -1.38,52.37 -2.27,50.44 -3.16,48.52 -3.23,48.25 -3.30,47.99 -3.29,47.71 -3.27,47.44 -3.17,47.19 -3.07,46.93 -2.89,46.72 -2.72,46.51 -2.48,46.37 -2.25,46.23 -1.98,46.17 -1.71,46.11 -1.44,46.14 -1.17,46.17 -0.92,46.29 -0.67,46.40 -0.47,46.59 -0.27,46.78 -0.14,47.02 -0.02,47.27 0.02,47.54 0.06,47.81 0.02,48.08 -0.02,48.35 -0.15,48.59 -0.27,48.83 -0.47,49.02 -0.67,49.21 -0.92,49.32 -1.17,49.44 -1.44,49.47 -1.71,49.50 -1.98,49.44 -2.25,49.38 -2.48,49.24 -2.72,49.09 -2.90,48.89 -3.07,48.68 -3.17,48.42 -3.27,48.17 -3.29,47.89 -3.30,47.62 -3.23,47.36 -3.16,47.09 -3.00,46.87 -2.85,46.64 -2.63,46.47 -2.41,46.31 -2.15,46.22 -1.89,46.13 -1.62,46.13 -1.35,46.14 -1.09,46.22 -0.83,46.31 -0.61,46.48 -0.39,46.64 -0.24,46.87 -0.08,47.10 -0.08,47.10 -0.08,47.10 0.81,49.50 1.72,51.91 1.72,52.10 1.73,52.29 1.69,52.47 1.65,52.66 1.56,52.83 1.48,53.00 1.36,53.14 1.24,53.29 1.08,53.40 0.93,53.51 0.76,53.58 0.58,53.65 0.40,53.68 0.21,53.71 0.02,53.69 -0.16,53.67 -0.34,53.61 -0.51,53.55 -0.67,53.45 -0.83,53.34 -0.96,53.21 -1.09,53.07 -1.18,52.90 -1.27,52.74 -1.33,52.56 -1.38,52.37 -1.16,51.77 -0.94,51.16 -1.37,48.42 -1.79,45.67 -2.08,41.94 -2.37,38.21 -2.37,34.30 -2.37,30.38 -2.34,26.59 -2.31,22.80 -2.22,18.60 -2.13,14.41 -1.90,10.08 -1.66,5.74 -1.72,2.87 -1.79,0 -1.76,-0.21 -1.74,-0.42 -1.66,-0.63 -1.58,-0.83 -1.46,-1.01 -1.34,-1.18 -1.18,-1.33 -1.01,-1.47 -0.82,-1.57 -0.63,-1.67 -0.42,-1.72 -0.21,-1.77 0.00,-1.77 0.21,-1.77 0.42,-1.72 0.63,-1.67 0.82,-1.57 1.01,-1.47 1.18,-1.33 1.34,-1.18 1.46,-1.01 1.58,-0.83 1.66,-0.63 1.74,-0.42 1.76,-0.21 1.79,0.00 1.79,0.00 L 1.79,0 Z"></path></g><g transform="translate(738 20) rotate(0 7.5 23.5)" stroke="none"><path fill="#1e1e1e" d="M 0,-2.49 Q 0,-2.49 1.43,-2.48 2.87,-2.48 4.06,-2.51 5.24,-2.54 7.85,-1.84 10.46,-1.14 11.91,0.63 13.35,2.41 14.17,3.67 14.99,4.92 15.65,6.05 16.31,7.17 16.91,8.90 17.50,10.62 17.30,13.21 17.10,15.80 16.63,17.12 16.15,18.44 14.80,19.91 13.45,21.38 12.08,22.61 10.70,23.85 9.43,24.81 8.16,25.77 6.59,26.54 5.02,27.30 2.64,27.56 0.27,27.81 -1.52,27.91 -3.31,28.01 -4.67,28.10 -6.03,28.19 -6.84,27.99 -7.66,27.79 -7.95,27.76 -8.24,27.74 -8.51,27.65 -8.78,27.55 -9.03,27.40 -9.27,27.24 -9.47,27.03 -9.67,26.82 -9.82,26.57 -9.96,26.32 -10.04,26.05 -10.12,25.77 -10.13,25.48 -10.14,25.19 -10.08,24.91 -10.02,24.62 -9.90,24.36 -9.77,24.10 -9.59,23.88 -9.41,23.66 -9.18,23.48 -8.94,23.31 -8.68,23.20 -8.41,23.08 -8.13,23.04 -7.84,22.99 -4.42,23.27 -0.99,23.55 1.57,23.75 4.15,23.95 5.55,23.94 6.96,23.92 8.13,23.87 9.29,23.82 10.65,23.79 12.00,23.76 13.66,24.06 15.33,24.35 17.58,25.54 19.84,26.72 20.92,27.04 22.01,27.36 23.83,28.68 25.66,29.99 25.95,31.50 26.25,33.01 26.35,34.16 26.46,35.31 26.17,36.96 25.88,38.61 24.98,40.19 24.09,41.78 22.83,42.69 21.56,43.60 20.39,44.32 19.21,45.05 18.06,45.71 16.91,46.37 15.84,46.96 14.77,47.54 13.09,48.07 11.41,48.60 9.70,49.13 7.98,49.65 6.50,49.80 5.02,49.95 3.90,50.01 2.79,50.08 1.36,50.11 -0.07,50.15 -1.14,50.18 -2.22,50.22 -4.84,49.73 -7.46,49.25 -7.94,49.05 -8.43,48.84 -8.83,48.49 -9.22,48.13 -9.49,47.67 -9.75,47.21 -9.85,46.69 -9.95,46.17 -9.88,45.65 -9.82,45.12 -9.58,44.65 -9.35,44.17 -8.98,43.80 -8.60,43.42 -8.13,43.18 -7.66,42.95 -7.13,42.87 -6.61,42.80 -6.09,42.90 -5.56,42.99 -5.10,43.25 -4.64,43.51 -4.28,43.90 -3.93,44.30 -3.72,44.78 -3.51,45.27 -3.46,45.80 -3.42,46.32 -3.54,46.84 -3.67,47.35 -3.95,47.80 -4.23,48.25 -4.65,48.58 -5.06,48.92 -5.55,49.10 -6.05,49.29 -6.58,49.30 -7.11,49.32 -7.62,49.17 -8.12,49.01 -8.55,48.70 -8.99,48.40 -9.30,47.97 -9.61,47.54 -9.77,47.03 -9.92,46.53 -9.91,46.00 -9.90,45.47 -9.72,44.97 -9.54,44.47 -9.21,44.06 -8.88,43.64 -8.43,43.36 -7.99,43.07 -7.47,42.94 -6.96,42.81 -6.43,42.85 -5.90,42.89 -5.90,42.89 -5.90,42.89 -3.54,43.35 -1.18,43.81 -0.00,43.84 1.16,43.88 2.45,43.91 3.74,43.94 4.81,43.95 5.87,43.97 7.14,43.99 8.40,44.01 10.35,43.42 12.30,42.82 13.31,42.31 14.33,41.79 15.37,41.21 16.42,40.64 17.70,39.80 18.99,38.97 19.94,38.23 20.88,37.50 21.11,35.56 21.33,33.62 20.94,32.50 20.56,31.39 19.32,30.87 18.09,30.35 16.25,29.56 14.40,28.78 13.18,28.49 11.96,28.21 10.59,28.16 9.22,28.11 8.03,28.03 6.84,27.94 5.42,27.84 4.00,27.74 1.27,27.73 -1.45,27.73 -3.40,27.63 -5.35,27.53 -6.51,27.66 -7.66,27.79 -7.95,27.76 -8.24,27.74 -8.51,27.65 -8.78,27.55 -9.03,27.40 -9.27,27.24 -9.47,27.03 -9.67,26.83 -9.81,26.57 -9.96,26.32 -10.04,26.05 -10.12,25.77 -10.13,25.48 -10.14,25.19 -10.08,24.91 -10.02,24.62 -9.90,24.36 -9.77,24.10 -9.59,23.88 -9.41,23.66 -9.18,23.48 -8.94,23.31 -8.68,23.20 -8.41,23.08 -8.13,23.04 -7.84,22.99 -6.97,23.32 -6.11,23.65 -4.86,23.64 -3.61,23.63 -1.97,23.50 -0.33,23.37 1.30,23.07 2.93,22.78 4.05,22.26 5.16,21.73 6.15,21.01 7.14,20.28 9.08,18.31 11.03,16.33 11.59,14.61 12.15,12.89 12.02,11.27 11.89,9.65 11.34,8.63 10.79,7.61 10.11,6.54 9.43,5.46 8.71,4.45 7.99,3.44 6.61,2.99 5.24,2.54 4.06,2.51 2.87,2.48 1.43,2.48 0,2.49 -0.29,2.45 -0.59,2.41 -0.87,2.31 -1.15,2.20 -1.40,2.03 -1.65,1.86 -1.85,1.63 -2.04,1.41 -2.18,1.14 -2.32,0.88 -2.40,0.59 -2.47,0.30 -2.47,-0.00 -2.47,-0.30 -2.40,-0.59 -2.32,-0.88 -2.18,-1.14 -2.04,-1.41 -1.85,-1.63 -1.65,-1.86 -1.40,-2.03 -1.15,-2.20 -0.87,-2.31 -0.59,-2.41 -0.29,-2.45 0.00,-2.49 0.00,-2.49 L 0,-2.49 Z"></path></g><g transform="translate(26 164) rotate(0 133.5 1.5)" stroke="none"><path fill="#1e1e1e" d="M 0,-2.07 Q 0,-2.07 1.43,-2.11 2.87,-2.14 4.06,-2.20 5.24,-2.26 6.90,-2.24 8.55,-2.23 11.32,-1.97 14.09,-1.71 15.49,-1.29 16.89,-0.87 18.32,-0.71 19.75,-0.56 22.10,-0.36 24.45,-0.16 29.20,-0.03 33.95,0.09 39.19,0.47 44.42,0.84 48.61,1.02 52.81,1.20 58.68,1.88 64.56,2.55 73.89,3.13 83.23,3.71 95.23,3.97 107.23,4.22 116.08,4.34 124.93,4.45 131.56,4.51 138.19,4.56 144.17,4.59 150.15,4.61 160.15,4.34 170.15,4.07 176.71,3.95 183.28,3.84 188.91,3.50 194.55,3.17 198.69,3.03 202.84,2.88 206.86,2.54 210.89,2.19 216.61,1.47 222.33,0.75 226.82,0.44 231.32,0.13 235.20,-0.27 239.08,-0.69 244.75,-1.44 250.42,-2.19 253.72,-2.51 257.02,-2.83 258.71,-3.05 260.39,-3.27 263.31,-3.96 266.23,-4.65 266.52,-4.68 266.81,-4.71 267.09,-4.64 267.38,-4.58 267.62,-4.43 267.87,-4.28 268.06,-4.05 268.24,-3.83 268.35,-3.56 268.46,-3.29 268.47,-3.00 268.48,-2.71 268.40,-2.43 268.32,-2.15 268.16,-1.91 268.00,-1.67 267.76,-1.50 267.53,-1.32 267.25,-1.23 266.98,-1.14 266.69,-1.14 266.40,-1.15 266.12,-1.24 265.85,-1.34 265.62,-1.51 265.39,-1.69 265.23,-1.93 265.07,-2.17 264.99,-2.45 264.92,-2.73 264.93,-3.02 264.95,-3.31 265.06,-3.58 265.17,-3.85 265.36,-4.07 265.55,-4.29 265.80,-4.44 266.05,-4.59 266.33,-4.65 266.62,-4.71 266.90,-4.67 267.19,-4.64 267.46,-4.52 267.72,-4.39 267.93,-4.19 268.14,-3.99 268.27,-3.73 268.41,-3.48 268.45,-3.19 268.50,-2.90 268.45,-2.62 268.40,-2.33 268.26,-2.07 268.12,-1.82 267.91,-1.62 267.70,-1.42 267.43,-1.30 267.17,-1.18 267.17,-1.18 267.17,-1.18 263.90,-0.75 260.63,-0.31 258.95,-0.26 257.28,-0.21 254.02,0.09 250.76,0.41 245.06,1.17 239.36,1.92 235.43,2.34 231.50,2.76 227.08,3.07 222.66,3.37 216.89,4.10 211.11,4.83 207.02,5.18 202.93,5.53 198.82,5.68 194.70,5.82 189.01,6.16 183.33,6.51 176.77,6.63 170.22,6.75 160.18,7.04 150.15,7.32 144.16,7.31 138.18,7.30 131.53,7.27 124.89,7.24 116.04,7.16 107.18,7.07 95.12,6.85 83.05,6.64 73.64,6.11 64.23,5.58 58.47,4.99 52.71,4.41 48.47,4.33 44.22,4.26 39.07,4.03 33.93,3.80 29.13,3.87 24.33,3.94 21.80,3.99 19.28,4.04 17.35,3.85 15.42,3.66 14.34,3.26 13.25,2.86 10.90,2.54 8.55,2.23 6.90,2.24 5.24,2.26 4.06,2.20 2.87,2.14 1.43,2.11 0,2.07 -0.24,2.04 -0.49,2.01 -0.73,1.92 -0.96,1.83 -1.16,1.69 -1.37,1.55 -1.54,1.36 -1.70,1.17 -1.82,0.95 -1.93,0.73 -1.99,0.49 -2.05,0.24 -2.05,-0.00 -2.05,-0.25 -1.99,-0.49 -1.93,-0.73 -1.82,-0.95 -1.70,-1.17 -1.54,-1.36 -1.37,-1.55 -1.16,-1.69 -0.96,-1.83 -0.73,-1.92 -0.49,-2.01 -0.24,-2.04 0.00,-2.07 0.00,-2.07 L 0,-2.07 Z"></path></g><g transform="translate(155 98) rotate(0 0.5 34.5)" stroke="none"><path fill="#1e1e1e" d="M 2.01,0 Q 2.01,0 1.91,2.3 1.82,4.6 1.75,7.87 1.68,11.15 1.67,13.12 1.66,15.09 1.76,16.21 1.86,17.33 2.00,19.70 2.14,22.06 2.17,23.48 2.21,24.89 2.38,26.80 2.56,28.70 2.63,30.80 2.69,32.90 2.80,34.35 2.91,35.81 3.00,37.01 3.09,38.21 3.24,39.63 3.38,41.06 3.48,42.14 3.58,43.22 3.70,44.74 3.81,46.25 3.90,47.75 3.99,49.26 4.03,51.33 4.07,53.41 4.03,54.73 4.00,56.04 4.03,57.54 4.07,59.04 4.11,60.13 4.15,61.22 4.20,62.73 4.25,64.25 4.26,66.45 4.28,68.65 4.19,69.17 4.10,69.70 3.86,70.16 3.61,70.63 3.22,71.00 2.84,71.36 2.35,71.59 1.87,71.81 1.34,71.87 0.82,71.92 0.30,71.81 -0.21,71.70 -0.66,71.42 -1.12,71.15 -1.46,70.74 -1.81,70.34 -2.00,69.85 -2.20,69.35 -2.23,68.82 -2.26,68.29 -2.11,67.78 -1.97,67.27 -1.67,66.83 -1.38,66.39 -0.95,66.07 -0.53,65.75 -0.03,65.58 0.46,65.41 1.00,65.41 1.53,65.41 2.03,65.58 2.53,65.75 2.95,66.07 3.38,66.39 3.67,66.83 3.97,67.27 4.11,67.78 4.26,68.29 4.23,68.82 4.20,69.35 4.00,69.85 3.81,70.34 3.46,70.74 3.12,71.15 2.66,71.42 2.21,71.70 1.69,71.81 1.17,71.92 0.64,71.87 0.12,71.81 -0.36,71.59 -0.84,71.36 -1.22,71.00 -1.61,70.63 -1.86,70.16 -2.10,69.69 -2.19,69.17 -2.28,68.65 -2.28,68.65 -2.28,68.65 -2.26,66.45 -2.25,64.25 -2.20,62.73 -2.15,61.22 -2.11,60.13 -2.07,59.04 -2.03,57.54 -2.00,56.04 -2.03,54.73 -2.07,53.41 -2.03,51.33 -1.99,49.26 -1.90,47.75 -1.81,46.25 -1.70,44.74 -1.58,43.23 -1.49,42.16 -1.39,41.09 -1.28,39.69 -1.16,38.28 -1.11,37.12 -1.06,35.95 -1.06,34.54 -1.05,33.13 -1.23,31.19 -1.41,29.26 -1.81,27.08 -2.21,24.90 -2.17,23.48 -2.14,22.06 -2.00,19.70 -1.86,17.33 -1.76,16.21 -1.66,15.09 -1.67,13.12 -1.68,11.15 -1.75,7.87 -1.82,4.6 -1.91,2.3 -2.01,0 -1.98,-0.24 -1.95,-0.48 -1.86,-0.70 -1.78,-0.93 -1.64,-1.13 -1.50,-1.33 -1.32,-1.49 -1.14,-1.65 -0.92,-1.76 -0.71,-1.88 -0.47,-1.93 -0.24,-1.99 0.00,-1.99 0.24,-1.99 0.47,-1.93 0.71,-1.87 0.92,-1.76 1.14,-1.65 1.32,-1.49 1.50,-1.33 1.64,-1.13 1.78,-0.93 1.86,-0.70 1.95,-0.48 1.98,-0.24 2.01,0.00 2.01,0.00 L 2.01,0 Z"></path></g><g transform="translate(27 213) rotate(0 128.5 1.5)" stroke="none"><path fill="#1e1e1e" d="M 0,-1.56 Q 0,-1.56 3.16,-1.52 6.32,-1.49 11.40,-1.46 16.48,-1.44 22.67,-1.42 28.85,-1.40 35.57,-0.81 42.28,-0.22 47.09,0.02 51.91,0.27 58.57,0.67 65.23,1.07 74.93,1.24 84.64,1.41 95.09,1.48 105.54,1.56 117.75,1.59 129.95,1.62 138.88,1.64 147.80,1.65 152.75,1.66 157.69,1.67 162.38,1.67 167.06,1.67 170.73,1.39 174.40,1.11 177.44,0.98 180.48,0.86 182.93,0.81 185.37,0.76 187.27,0.68 189.18,0.61 190.85,0.53 192.52,0.44 193.81,0.34 195.09,0.23 196.55,-0.18 198.01,-0.60 200.67,-0.66 203.34,-0.72 205.25,-0.75 207.16,-0.78 209.99,-0.73 212.82,-0.68 215.46,-0.63 218.10,-0.59 220.65,-0.55 223.21,-0.52 224.59,-0.62 225.96,-0.71 227.49,-0.89 229.02,-1.07 231.10,-1.19 233.18,-1.31 234.85,-1.29 236.52,-1.27 237.81,-1.30 239.10,-1.34 240.57,-1.45 242.05,-1.55 243.71,-1.62 245.37,-1.69 246.73,-1.76 248.10,-1.83 250.15,-1.85 252.20,-1.87 254.36,-1.89 256.52,-1.92 256.99,-1.84 257.46,-1.76 257.87,-1.54 258.29,-1.32 258.62,-0.98 258.94,-0.64 259.14,-0.21 259.34,0.21 259.39,0.68 259.44,1.15 259.34,1.62 259.24,2.08 258.99,2.48 258.75,2.89 258.39,3.19 258.03,3.50 257.59,3.67 257.15,3.85 256.68,3.88 256.21,3.90 255.75,3.77 255.30,3.65 254.90,3.38 254.51,3.12 254.23,2.74 253.94,2.36 253.79,1.92 253.64,1.47 253.64,0.99 253.64,0.52 253.79,0.07 253.94,-0.36 254.23,-0.74 254.51,-1.12 254.90,-1.38 255.30,-1.65 255.75,-1.77 256.21,-1.90 256.68,-1.88 257.15,-1.85 257.59,-1.67 258.03,-1.50 258.39,-1.19 258.75,-0.89 258.99,-0.48 259.24,-0.08 259.34,0.38 259.44,0.84 259.39,1.31 259.34,1.78 259.14,2.21 258.94,2.64 258.62,2.98 258.29,3.32 257.87,3.54 257.46,3.77 256.99,3.84 256.52,3.92 256.52,3.92 256.52,3.92 254.36,3.89 252.20,3.87 250.15,3.85 248.10,3.83 246.73,3.76 245.37,3.69 243.71,3.62 242.05,3.55 240.57,3.45 239.10,3.34 237.81,3.30 236.52,3.27 234.85,3.29 233.18,3.31 231.10,3.19 229.02,3.07 227.49,2.90 225.97,2.72 224.59,2.62 223.22,2.53 220.66,2.57 218.11,2.62 215.48,2.68 212.85,2.74 210.05,2.84 207.26,2.94 205.40,3.01 203.53,3.08 201.38,3.26 199.23,3.45 197.17,3.61 195.10,3.77 193.82,3.67 192.54,3.58 190.87,3.51 189.21,3.44 187.32,3.41 185.43,3.39 183.01,3.44 180.59,3.49 177.59,3.61 174.60,3.73 170.83,4.02 167.06,4.31 162.37,4.31 157.69,4.31 152.74,4.30 147.80,4.30 138.87,4.29 129.95,4.28 117.73,4.25 105.52,4.22 95.06,4.16 84.59,4.09 74.83,3.93 65.07,3.76 58.42,3.38 51.77,3.00 46.91,2.76 42.04,2.52 35.45,1.96 28.85,1.40 22.67,1.42 16.48,1.44 11.40,1.46 6.32,1.49 3.16,1.52 0,1.56 -0.18,1.53 -0.37,1.51 -0.54,1.45 -0.72,1.38 -0.88,1.27 -1.03,1.16 -1.16,1.02 -1.28,0.88 -1.37,0.72 -1.46,0.55 -1.50,0.37 -1.55,0.18 -1.55,-0.00 -1.55,-0.18 -1.50,-0.37 -1.46,-0.55 -1.37,-0.72 -1.28,-0.88 -1.16,-1.02 -1.03,-1.16 -0.88,-1.27 -0.72,-1.38 -0.54,-1.45 -0.37,-1.51 -0.18,-1.53 0.00,-1.56 0.00,-1.56 L 0,-1.56 Z"></path></g><g transform="translate(155 217) rotate(0 -3 28)" stroke="none"><path fill="#1e1e1e" d="M 2.04,0.20 Q 2.04,0.20 1.65,3.06 1.27,5.93 0.78,9.18 0.30,12.43 -0.21,15.82 -0.73,19.20 -0.96,21.74 -1.19,24.28 -1.30,26.79 -1.41,29.29 -1.68,31.08 -1.95,32.86 -1.93,34.75 -1.91,36.64 -1.80,38.18 -1.69,39.73 -1.58,41.35 -1.48,42.98 -1.75,44.82 -2.03,46.66 -2.52,48.62 -3.00,50.58 -3.05,53.13 -3.10,55.69 -3.19,56.14 -3.28,56.60 -3.52,57.01 -3.75,57.41 -4.10,57.72 -4.45,58.03 -4.88,58.21 -5.31,58.39 -5.77,58.42 -6.24,58.45 -6.69,58.34 -7.14,58.22 -7.53,57.97 -7.93,57.71 -8.21,57.34 -8.50,56.98 -8.66,56.54 -8.82,56.10 -8.83,55.63 -8.83,55.17 -8.69,54.72 -8.55,54.28 -8.28,53.90 -8.00,53.52 -7.62,53.25 -7.24,52.99 -6.79,52.85 -6.34,52.72 -5.88,52.74 -5.41,52.75 -4.97,52.92 -4.54,53.08 -4.18,53.38 -3.82,53.68 -3.57,54.07 -3.32,54.47 -3.21,54.92 -3.10,55.37 -3.15,55.84 -3.19,56.30 -3.38,56.73 -3.56,57.16 -3.88,57.50 -4.19,57.85 -4.60,58.07 -5.01,58.30 -5.47,58.38 -5.93,58.47 -6.39,58.40 -6.85,58.33 -7.27,58.12 -7.68,57.91 -8.01,57.58 -8.34,57.24 -8.54,56.82 -8.75,56.40 -8.80,55.94 -8.86,55.48 -8.86,55.48 -8.86,55.48 -8.74,53.59 -8.63,51.69 -8.08,49.11 -7.53,46.53 -7.02,44.75 -6.51,42.97 -6.39,41.32 -6.27,39.67 -6.09,38.04 -5.90,36.41 -5.50,34.32 -5.09,32.24 -4.71,30.72 -4.34,29.19 -4.28,26.62 -4.22,24.05 -4.06,21.41 -3.90,18.77 -3.49,15.39 -3.09,12.00 -2.75,8.78 -2.42,5.56 -2.23,2.68 -2.04,-0.20 -1.98,-0.44 -1.93,-0.68 -1.82,-0.90 -1.71,-1.12 -1.55,-1.31 -1.39,-1.50 -1.19,-1.65 -0.99,-1.79 -0.76,-1.88 -0.53,-1.98 -0.28,-2.01 -0.04,-2.05 0.20,-2.02 0.44,-2.00 0.68,-1.91 0.91,-1.83 1.12,-1.70 1.32,-1.56 1.49,-1.38 1.66,-1.20 1.78,-0.98 1.90,-0.76 1.96,-0.52 2.03,-0.29 2.03,-0.04 2.04,0.20 2.04,0.20 L 2.04,0.20 Z"></path></g><g transform="translate(604 151) rotate(0 128.5 5)" stroke="none"><path fill="#1e1e1e" d="M 0.36,-1.51 Q 0.36,-1.51 6.39,-0.04 12.42,1.42 16.64,2.04 20.86,2.66 28.38,3.22 35.90,3.78 45.12,4.03 54.35,4.27 66.05,4.67 77.75,5.06 89.91,5.52 102.07,5.98 115.30,6.75 128.53,7.52 142.18,7.85 155.82,8.18 168.81,8.32 181.80,8.46 190.19,8.52 198.59,8.58 203.59,8.61 208.60,8.64 211.30,8.65 214.00,8.66 216.30,8.67 218.60,8.67 220.93,8.39 223.27,8.11 224.59,7.87 225.91,7.62 227.44,7.35 228.97,7.08 230.09,6.93 231.20,6.78 232.63,6.66 234.07,6.53 235.55,6.44 237.04,6.34 238.54,6.27 240.04,6.19 241.13,6.13 242.22,6.07 243.64,6.02 245.07,5.97 246.13,5.93 247.20,5.89 249.48,5.53 251.76,5.18 254.05,5.07 256.33,4.95 256.82,5.02 257.31,5.09 257.76,5.31 258.20,5.53 258.55,5.88 258.90,6.23 259.11,6.68 259.33,7.12 259.40,7.61 259.46,8.10 259.37,8.59 259.27,9.07 259.03,9.50 258.78,9.93 258.41,10.26 258.04,10.59 257.59,10.78 257.13,10.98 256.64,11.02 256.15,11.05 255.67,10.93 255.19,10.81 254.77,10.54 254.36,10.28 254.05,9.89 253.74,9.50 253.57,9.04 253.40,8.57 253.39,8.08 253.38,7.59 253.53,7.11 253.67,6.64 253.96,6.24 254.25,5.84 254.66,5.55 255.06,5.27 255.53,5.12 256.01,4.98 256.50,4.99 256.99,5.01 257.46,5.18 257.92,5.35 258.30,5.67 258.69,5.98 258.95,6.39 259.22,6.81 259.34,7.29 259.45,7.77 259.41,8.26 259.37,8.76 259.17,9.21 258.98,9.66 258.64,10.03 258.31,10.40 257.88,10.64 257.45,10.88 256.96,10.97 256.48,11.06 256.48,11.06 256.48,11.06 254.40,11.12 252.32,11.17 251.25,11.29 250.17,11.40 248.71,11.75 247.25,12.10 246.16,12.06 245.07,12.02 243.64,11.97 242.22,11.92 241.13,11.86 240.04,11.80 238.54,11.72 237.04,11.65 235.56,11.55 234.07,11.46 232.65,11.34 231.23,11.22 230.17,11.10 229.10,10.97 227.65,10.85 226.20,10.73 224.89,10.73 223.58,10.72 221.09,11.01 218.60,11.31 216.29,11.30 213.99,11.30 211.29,11.29 208.59,11.28 203.58,11.25 198.57,11.23 190.17,11.17 181.77,11.12 168.76,10.98 155.76,10.85 142.07,10.52 128.38,10.20 115.18,9.44 101.97,8.68 89.82,8.23 77.66,7.79 65.97,7.41 54.28,7.03 44.99,6.81 35.70,6.59 28.07,6.06 20.45,5.52 16.09,4.92 11.72,4.32 5.68,2.92 -0.36,1.51 -0.53,1.45 -0.71,1.38 -0.87,1.28 -1.02,1.17 -1.15,1.03 -1.27,0.89 -1.36,0.73 -1.45,0.56 -1.50,0.38 -1.54,0.20 -1.55,0.01 -1.55,-0.17 -1.50,-0.35 -1.46,-0.54 -1.37,-0.70 -1.29,-0.87 -1.16,-1.01 -1.04,-1.16 -0.89,-1.26 -0.73,-1.37 -0.56,-1.44 -0.38,-1.51 -0.19,-1.53 -0.01,-1.56 0.17,-1.54 0.36,-1.51 0.36,-1.51 L 0.36,-1.51 Z"></path></g><g transform="translate(737 98) rotate(0 0.5 33.5)" stroke="none"><path fill="#1e1e1e" d="M 1.85,0 Q 1.85,0 1.77,3.16 1.70,6.32 1.70,8.24 1.69,10.16 1.64,12.41 1.59,14.66 1.56,16.77 1.52,18.88 1.51,20.93 1.50,22.97 1.48,25.28 1.45,27.58 1.43,29.72 1.41,31.85 1.51,33.33 1.61,34.81 1.71,36.01 1.81,37.21 1.98,38.93 2.15,40.64 2.27,41.89 2.40,43.15 2.33,47.57 2.26,52.00 2.14,55.45 2.01,58.89 2.49,62.08 2.97,65.27 2.95,65.62 2.94,65.97 2.81,66.30 2.69,66.62 2.47,66.89 2.24,67.16 1.94,67.35 1.65,67.53 1.30,67.62 0.96,67.70 0.61,67.66 0.26,67.63 -0.05,67.49 -0.37,67.34 -0.62,67.11 -0.88,66.87 -1.05,66.56 -1.22,66.25 -1.28,65.91 -1.34,65.56 -1.29,65.22 -1.24,64.87 -1.08,64.56 -0.92,64.24 -0.67,64.00 -0.42,63.75 -0.10,63.60 0.20,63.45 0.55,63.41 0.90,63.37 1.24,63.44 1.59,63.51 1.89,63.68 2.19,63.86 2.43,64.12 2.66,64.39 2.79,64.71 2.93,65.04 2.95,65.39 2.97,65.74 2.88,66.08 2.80,66.41 2.60,66.71 2.41,67.00 2.13,67.22 1.86,67.43 1.53,67.55 1.20,67.67 0.84,67.67 0.49,67.68 0.16,67.57 -0.16,67.46 -0.45,67.25 -0.73,67.05 -0.93,66.76 -1.13,66.47 -1.23,66.13 -1.33,65.80 -1.33,65.80 -1.33,65.80 -1.67,62.35 -2.01,58.90 -2.14,55.45 -2.26,52.00 -2.33,47.57 -2.40,43.15 -2.27,41.89 -2.15,40.64 -1.98,38.93 -1.81,37.21 -1.71,36.01 -1.61,34.81 -1.51,33.33 -1.41,31.85 -1.43,29.72 -1.45,27.58 -1.48,25.28 -1.50,22.97 -1.51,20.93 -1.52,18.88 -1.56,16.77 -1.59,14.66 -1.64,12.41 -1.69,10.16 -1.70,8.24 -1.70,6.32 -1.77,3.16 -1.85,0 -1.82,-0.22 -1.79,-0.44 -1.71,-0.65 -1.63,-0.86 -1.51,-1.04 -1.38,-1.22 -1.21,-1.37 -1.05,-1.52 -0.85,-1.62 -0.65,-1.73 -0.43,-1.78 -0.22,-1.83 0.00,-1.83 0.22,-1.83 0.43,-1.78 0.65,-1.73 0.85,-1.62 1.05,-1.52 1.21,-1.37 1.38,-1.22 1.51,-1.04 1.63,-0.85 1.71,-0.65 1.79,-0.44 1.82,-0.22 1.85,0.00 1.85,0.00 L 1.85,0 Z"></path></g><g transform="translate(601 228) rotate(0 129.5 -3)" stroke="none"><path fill="#1e1e1e" d="M -0.22,-1.54 Q -0.22,-1.54 5.82,-2.37 11.86,-3.20 17.28,-4.11 22.71,-5.03 27.67,-5.42 32.64,-5.81 37.34,-5.97 42.04,-6.13 55.26,-6.19 68.48,-6.25 82.73,-5.99 96.98,-5.72 110.50,-5.61 124.01,-5.50 133.50,-5.45 142.98,-5.40 154.48,-5.37 165.99,-5.35 174.59,-5.63 183.20,-5.91 188.85,-6.31 194.51,-6.71 199.53,-6.88 204.56,-7.06 208.71,-7.13 212.85,-7.20 216.06,-7.23 219.26,-7.26 221.48,-7.28 223.70,-7.29 225.22,-7.40 226.74,-7.51 228.65,-7.73 230.56,-7.94 232.54,-8.09 234.52,-8.24 236.81,-8.33 239.09,-8.42 240.57,-8.52 242.05,-8.62 243.71,-8.68 245.37,-8.74 247.14,-8.79 248.91,-8.84 250.38,-8.80 251.84,-8.77 253.32,-8.73 254.80,-8.70 256.69,-8.72 258.57,-8.75 259.01,-8.68 259.45,-8.61 259.84,-8.40 260.24,-8.19 260.54,-7.86 260.85,-7.54 261.04,-7.14 261.22,-6.73 261.27,-6.29 261.32,-5.85 261.22,-5.41 261.13,-4.98 260.90,-4.59 260.67,-4.21 260.33,-3.92 259.99,-3.63 259.58,-3.47 259.16,-3.30 258.72,-3.28 258.27,-3.26 257.84,-3.38 257.41,-3.49 257.04,-3.74 256.67,-3.99 256.40,-4.35 256.13,-4.70 255.99,-5.13 255.85,-5.55 255.85,-6.00 255.85,-6.44 255.99,-6.86 256.14,-7.29 256.41,-7.64 256.67,-8.00 257.04,-8.25 257.41,-8.50 257.84,-8.61 258.27,-8.73 258.72,-8.71 259.16,-8.69 259.58,-8.52 259.99,-8.36 260.33,-8.07 260.67,-7.78 260.90,-7.40 261.13,-7.01 261.22,-6.58 261.32,-6.14 261.27,-5.70 261.22,-5.26 261.04,-4.85 260.85,-4.45 260.54,-4.12 260.24,-3.80 259.84,-3.59 259.45,-3.38 259.01,-3.31 258.57,-3.24 258.57,-3.24 258.57,-3.24 256.69,-3.27 254.80,-3.29 253.32,-3.26 251.84,-3.22 250.38,-3.19 248.91,-3.15 247.14,-3.20 245.37,-3.25 243.71,-3.31 242.05,-3.37 240.57,-3.47 239.09,-3.57 236.81,-3.66 234.52,-3.75 232.54,-3.90 230.56,-4.05 228.66,-4.25 226.76,-4.46 225.24,-4.56 223.72,-4.66 221.50,-4.65 219.28,-4.63 216.09,-4.60 212.90,-4.57 208.77,-4.50 204.65,-4.42 199.67,-4.25 194.69,-4.08 188.99,-3.67 183.28,-3.26 174.63,-2.98 165.98,-2.70 154.48,-2.71 142.97,-2.73 133.48,-2.77 123.99,-2.82 110.46,-2.92 96.93,-3.03 82.71,-3.27 68.49,-3.52 55.32,-3.44 42.14,-3.36 37.50,-3.18 32.87,-3.00 28.03,-2.59 23.20,-2.18 17.74,-1.21 12.28,-0.24 6.25,0.65 0.22,1.54 0.03,1.55 -0.15,1.55 -0.33,1.51 -0.52,1.47 -0.69,1.38 -0.86,1.30 -1.00,1.18 -1.14,1.06 -1.25,0.90 -1.36,0.75 -1.43,0.58 -1.50,0.40 -1.53,0.21 -1.56,0.03 -1.54,-0.15 -1.52,-0.34 -1.46,-0.51 -1.39,-0.69 -1.29,-0.85 -1.19,-1.01 -1.05,-1.13 -0.91,-1.26 -0.74,-1.35 -0.58,-1.44 -0.40,-1.49 -0.22,-1.54 -0.22,-1.54 L -0.22,-1.54 Z"></path></g><g transform="translate(740 225) rotate(0 -2 28.5)" stroke="none"><path fill="#1e1e1e" d="M 2.26,0.64 Q 2.26,0.64 1.57,2.62 0.87,4.60 0.68,5.92 0.50,7.24 0.29,9.44 0.09,11.64 -0.22,13.36 -0.55,15.09 -0.61,16.25 -0.67,17.40 -0.64,19.33 -0.60,21.26 -0.51,22.96 -0.42,24.65 -0.34,25.90 -0.26,27.15 -0.21,28.53 -0.15,29.92 -0.53,31.10 -0.91,32.27 -0.89,33.79 -0.86,35.31 -0.86,36.86 -0.86,38.41 -0.87,40.45 -0.88,42.50 -0.87,44.22 -0.85,45.94 -0.82,47.07 -0.78,48.20 -0.77,49.62 -0.75,51.03 0.26,52.47 1.28,53.91 1.71,54.23 2.14,54.56 2.44,55.01 2.74,55.45 2.89,55.97 3.03,56.49 3.00,57.03 2.97,57.57 2.77,58.07 2.57,58.57 2.22,58.98 1.87,59.39 1.41,59.67 0.95,59.94 0.42,60.06 -0.10,60.17 -0.63,60.11 -1.17,60.06 -1.66,59.83 -2.15,59.60 -2.54,59.23 -2.93,58.86 -3.18,58.38 -3.43,57.91 -3.52,57.37 -3.60,56.84 -3.52,56.31 -3.43,55.78 -3.17,55.30 -2.92,54.83 -2.53,54.46 -2.14,54.09 -1.65,53.86 -1.16,53.64 -0.62,53.58 -0.09,53.52 0.43,53.64 0.96,53.76 1.42,54.03 1.88,54.31 2.23,54.72 2.57,55.13 2.77,55.64 2.97,56.14 3.00,56.67 3.03,57.21 2.88,57.73 2.74,58.25 2.44,58.70 2.13,59.14 1.70,59.47 1.27,59.79 0.76,59.96 0.25,60.14 -0.28,60.13 -0.82,60.13 -1.33,59.96 -1.84,59.79 -1.84,59.79 -1.84,59.79 -4.07,56.85 -6.30,53.91 -6.77,52.69 -7.24,51.47 -7.22,49.83 -7.21,48.20 -7.17,47.07 -7.14,45.94 -7.12,44.22 -7.11,42.50 -7.12,40.45 -7.13,38.40 -7.11,36.80 -7.10,35.19 -7.02,34.06 -6.93,32.92 -6.38,31.31 -5.84,29.70 -5.78,28.42 -5.73,27.14 -5.64,25.88 -5.55,24.63 -5.43,22.89 -5.31,21.16 -5.11,19.04 -4.90,16.92 -4.68,15.59 -4.46,14.27 -4.12,12.86 -3.78,11.46 -3.78,8.99 -3.77,6.52 -3.47,4.98 -3.17,3.44 -2.72,1.40 -2.26,-0.64 -2.15,-0.91 -2.04,-1.17 -1.87,-1.40 -1.70,-1.62 -1.48,-1.80 -1.26,-1.98 -1.01,-2.11 -0.75,-2.23 -0.47,-2.29 -0.19,-2.35 0.08,-2.34 0.37,-2.32 0.64,-2.25 0.91,-2.17 1.16,-2.03 1.41,-1.89 1.61,-1.69 1.82,-1.49 1.97,-1.25 2.12,-1.01 2.21,-0.74 2.30,-0.48 2.33,-0.19 2.35,0.08 2.31,0.36 2.26,0.64 2.26,0.64 L 2.26,0.64 Z"></path></g><g transform="translate(31 121) rotate(0 4 5)" stroke="none"><path fill="#1e1e1e" d="M -1.86,-1.86 Q -1.86,-1.86 -1.01,-2.73 -0.15,-3.60 0.54,-4.60 1.24,-5.59 2.11,-6.36 2.98,-7.12 4.18,-7.87 5.39,-8.62 7.49,-7.96 9.59,-7.31 10.29,-5.77 10.99,-4.24 10.99,-2.66 11.00,-1.07 10.67,0.44 10.34,1.97 10.17,3.37 10.01,4.77 9.61,7.27 9.22,9.77 9.12,11.03 9.02,12.30 9.00,14.00 8.98,15.70 8.90,16.17 8.82,16.65 8.59,17.08 8.36,17.50 8.01,17.83 7.65,18.16 7.21,18.36 6.77,18.56 6.29,18.60 5.81,18.65 5.34,18.55 4.87,18.44 4.46,18.19 4.05,17.93 3.74,17.56 3.43,17.19 3.25,16.74 3.08,16.29 3.06,15.81 3.03,15.33 3.17,14.86 3.30,14.40 3.57,14.00 3.85,13.60 4.24,13.31 4.62,13.03 5.08,12.87 5.54,12.72 6.02,12.73 6.51,12.73 6.96,12.89 7.42,13.05 7.80,13.34 8.18,13.64 8.45,14.04 8.72,14.44 8.84,14.91 8.97,15.38 8.94,15.86 8.91,16.34 8.72,16.79 8.54,17.23 8.23,17.60 7.91,17.97 7.49,18.21 7.08,18.46 6.61,18.56 6.13,18.66 5.65,18.60 5.17,18.54 4.74,18.34 4.30,18.13 3.95,17.79 3.61,17.46 3.38,17.03 3.16,16.60 3.09,16.13 3.01,15.65 3.01,15.65 3.01,15.65 3.08,13.72 3.14,11.79 3.41,10.11 3.69,8.44 4.01,6.40 4.33,4.37 4.61,1.69 4.89,-0.97 4.99,-2.74 5.09,-4.51 6.51,-4.11 7.94,-3.71 6.93,-3.22 5.92,-2.73 4.76,-1.28 3.60,0.15 2.73,1.01 1.86,1.86 1.61,2.06 1.36,2.26 1.07,2.39 0.78,2.52 0.47,2.57 0.15,2.63 -0.15,2.61 -0.47,2.59 -0.78,2.50 -1.08,2.40 -1.35,2.24 -1.62,2.07 -1.85,1.85 -2.07,1.62 -2.24,1.35 -2.40,1.08 -2.50,0.78 -2.59,0.47 -2.61,0.15 -2.63,-0.15 -2.57,-0.47 -2.52,-0.78 -2.39,-1.07 -2.26,-1.36 -2.06,-1.61 -1.86,-1.86 -1.86,-1.86 L -1.86,-1.86 Z"></path></g><g transform="translate(173 113) rotate(0 14.5 10.5)" stroke="none"><path fill="#1e1e1e" d="M 1.55,-1.81 Q 1.55,-1.81 3.47,0.02 5.39,1.85 6.84,3.61 8.30,5.38 9.31,7.07 10.31,8.77 10.83,9.80 11.35,10.83 11.78,12.35 12.21,13.86 11.38,15.99 10.55,18.11 9.08,19.33 7.62,20.54 5.78,21.49 3.93,22.43 2.48,22.66 1.03,22.89 0.50,22.93 -0.01,22.97 -0.37,22.95 -0.74,22.93 -1.08,22.83 -1.43,22.72 -1.74,22.54 -2.05,22.35 -2.31,22.10 -2.57,21.84 -2.76,21.54 -2.95,21.23 -3.06,20.88 -3.17,20.54 -3.20,20.17 -3.22,19.81 -3.16,19.46 -3.10,19.10 -2.95,18.77 -2.80,18.44 -2.58,18.15 -2.36,17.86 -2.08,17.63 -1.79,17.41 -1.46,17.26 -1.13,17.11 -0.78,17.04 -0.42,16.97 0.98,16.97 2.38,16.98 3.41,17.38 4.44,17.79 5.66,17.63 6.88,17.47 8.76,17.28 10.63,17.09 13.06,17.07 15.48,17.05 17.94,17.10 20.39,17.14 22.97,17.49 25.55,17.84 27.66,18.58 29.77,19.32 29.99,19.52 30.22,19.71 30.37,19.96 30.52,20.22 30.58,20.51 30.65,20.80 30.61,21.09 30.58,21.38 30.46,21.65 30.33,21.92 30.13,22.13 29.92,22.35 29.66,22.49 29.40,22.62 29.11,22.67 28.81,22.72 28.52,22.67 28.23,22.62 27.97,22.48 27.71,22.34 27.50,22.13 27.30,21.91 27.18,21.64 27.06,21.37 27.02,21.08 26.99,20.78 27.06,20.49 27.12,20.21 27.28,19.95 27.43,19.70 27.66,19.51 27.88,19.32 28.16,19.21 28.43,19.10 28.73,19.09 29.02,19.07 29.31,19.15 29.59,19.23 29.84,19.40 30.08,19.57 30.26,19.80 30.44,20.04 30.53,20.32 30.63,20.60 30.63,20.90 30.62,21.19 30.53,21.47 30.43,21.75 30.25,21.99 30.07,22.22 29.83,22.39 29.58,22.55 29.30,22.63 29.01,22.71 28.72,22.69 28.42,22.67 28.15,22.56 27.87,22.45 27.87,22.45 27.87,22.45 26.52,21.91 25.17,21.38 22.83,21.21 20.49,21.04 18.13,21.21 15.77,21.39 13.64,21.67 11.51,21.96 9.43,22.48 7.36,23.00 3.67,22.99 -0.01,22.97 -0.37,22.95 -0.74,22.93 -1.08,22.83 -1.43,22.72 -1.74,22.54 -2.05,22.35 -2.31,22.10 -2.57,21.84 -2.76,21.54 -2.95,21.23 -3.06,20.88 -3.17,20.54 -3.20,20.17 -3.22,19.81 -3.16,19.46 -3.10,19.10 -2.95,18.77 -2.80,18.44 -2.58,18.15 -2.36,17.86 -2.08,17.64 -1.79,17.41 -1.46,17.26 -1.13,17.11 -0.78,17.04 -0.42,16.97 0.10,16.98 0.62,16.99 1.95,17.01 3.28,17.04 4.62,16.19 5.95,15.34 6.78,14.41 7.60,13.48 7.31,12.08 7.03,10.67 6.25,9.28 5.46,7.90 4.06,6.47 2.65,5.04 0.54,3.42 -1.55,1.81 -1.74,1.59 -1.94,1.38 -2.07,1.13 -2.21,0.88 -2.29,0.60 -2.36,0.32 -2.36,0.03 -2.37,-0.24 -2.30,-0.52 -2.24,-0.80 -2.11,-1.06 -1.98,-1.32 -1.79,-1.54 -1.61,-1.75 -1.37,-1.92 -1.14,-2.09 -0.87,-2.20 -0.60,-2.30 -0.32,-2.34 -0.03,-2.38 0.24,-2.35 0.53,-2.32 0.80,-2.22 1.07,-2.13 1.31,-1.97 1.55,-1.81 1.55,-1.81 L 1.55,-1.81 Z"></path></g><g transform="translate(41 224) rotate(0 2 14)" stroke="none"><path fill="#1e1e1e" d="M 0.49,-2.46 Q 0.49,-2.46 1.93,-2.16 3.38,-1.86 5.12,-1.04 6.85,-0.22 8.27,0.35 9.68,0.92 11.12,1.86 12.56,2.80 13.48,3.47 14.39,4.15 15.09,5.21 15.78,6.27 15.79,7.81 15.80,9.35 14.96,10.78 14.12,12.22 13.25,12.96 12.38,13.71 13.12,15.20 13.85,16.68 13.81,17.96 13.77,19.23 12.95,20.65 12.13,22.07 10.92,23.21 9.71,24.35 8.28,25.61 6.84,26.87 5.54,27.85 4.25,28.82 3.26,29.36 2.28,29.90 0.88,30.04 -0.50,30.19 -3.94,27.36 -7.38,24.53 -8.57,23.44 -9.77,22.35 -10.01,22.05 -10.25,21.76 -10.39,21.40 -10.52,21.04 -10.53,20.66 -10.55,20.28 -10.44,19.91 -10.33,19.54 -10.11,19.23 -9.89,18.92 -9.58,18.70 -9.27,18.47 -8.90,18.36 -8.54,18.24 -8.16,18.25 -7.78,18.26 -7.42,18.39 -7.06,18.52 -6.76,18.75 -6.46,18.99 -6.25,19.31 -6.04,19.63 -5.95,20.00 -5.85,20.37 -5.88,20.75 -5.91,21.13 -6.06,21.49 -6.21,21.84 -6.46,22.12 -6.71,22.41 -7.04,22.60 -7.38,22.79 -7.75,22.86 -8.13,22.94 -8.50,22.89 -8.88,22.84 -9.23,22.67 -9.57,22.51 -9.84,22.24 -10.11,21.97 -10.29,21.63 -10.46,21.29 -10.51,20.91 -10.57,20.53 -10.50,20.16 -10.43,19.78 -10.24,19.45 -10.05,19.11 -9.77,18.85 -9.49,18.60 -9.14,18.44 -8.79,18.29 -8.41,18.26 -8.03,18.22 -7.66,18.31 -7.29,18.40 -6.96,18.61 -6.64,18.81 -6.64,18.81 -6.64,18.81 -5.41,19.87 -4.19,20.92 -1.53,22.77 1.11,24.63 2.10,23.88 3.08,23.14 4.30,21.71 5.53,20.29 6.82,19.30 8.11,18.31 7.88,17.02 7.65,15.73 7.22,13.97 6.78,12.20 8.27,10.63 9.75,9.05 9.81,7.90 9.86,6.75 8.89,6.05 7.91,5.34 6.35,4.75 4.78,4.16 3.57,3.58 2.36,3.01 0.93,2.73 -0.49,2.46 -0.78,2.36 -1.06,2.27 -1.32,2.11 -1.58,1.95 -1.79,1.73 -2.00,1.51 -2.15,1.25 -2.30,0.99 -2.39,0.70 -2.47,0.41 -2.49,0.11 -2.50,-0.19 -2.44,-0.48 -2.38,-0.78 -2.25,-1.06 -2.12,-1.33 -1.93,-1.56 -1.74,-1.80 -1.50,-1.98 -1.26,-2.17 -0.98,-2.29 -0.70,-2.41 -0.40,-2.46 -0.11,-2.51 0.19,-2.48 0.49,-2.46 0.49,-2.46 L 0.49,-2.46 Z"></path></g><g transform="translate(166 228) rotate(0 3.5 6)" stroke="none"><path fill="#1e1e1e" d="M 2.40,0.60 Q 2.40,0.60 1.68,2.86 0.96,5.12 0.69,6.84 0.42,8.55 1.56,8.31 2.70,8.07 5.66,7.71 8.61,7.34 9.04,7.40 9.47,7.46 9.85,7.65 10.24,7.85 10.54,8.16 10.84,8.46 11.03,8.85 11.22,9.24 11.28,9.66 11.33,10.09 11.25,10.51 11.16,10.94 10.95,11.31 10.73,11.68 10.41,11.97 10.09,12.25 9.69,12.42 9.30,12.59 8.87,12.62 8.44,12.65 8.02,12.55 7.60,12.44 7.24,12.21 6.88,11.97 6.61,11.63 6.34,11.30 6.20,10.89 6.05,10.49 6.04,10.06 6.03,9.62 6.16,9.21 6.29,8.80 6.55,8.45 6.80,8.11 7.15,7.86 7.50,7.61 7.92,7.48 8.33,7.36 8.76,7.38 9.19,7.39 9.59,7.54 10.00,7.69 10.33,7.96 10.66,8.24 10.89,8.60 11.12,8.97 11.22,9.38 11.33,9.80 11.29,10.23 11.25,10.66 11.08,11.06 10.90,11.45 10.61,11.77 10.32,12.09 9.95,12.30 9.57,12.51 9.15,12.59 8.72,12.66 8.72,12.66 8.72,12.66 6.47,12.77 4.22,12.88 2.91,13.22 1.61,13.57 -0.08,13.42 -1.79,13.27 -2.76,12.14 -3.73,11.01 -3.71,9.51 -3.70,8.00 -3.48,6.03 -3.26,4.07 -2.83,1.73 -2.40,-0.60 -2.29,-0.88 -2.19,-1.15 -2.02,-1.40 -1.85,-1.65 -1.62,-1.84 -1.40,-2.04 -1.13,-2.18 -0.87,-2.32 -0.58,-2.39 -0.29,-2.46 0.00,-2.46 0.30,-2.46 0.59,-2.38 0.88,-2.31 1.15,-2.17 1.41,-2.03 1.63,-1.83 1.86,-1.63 2.03,-1.39 2.19,-1.14 2.30,-0.86 2.40,-0.58 2.44,-0.28 2.47,0.00 2.44,0.30 2.40,0.60 2.40,0.60 L 2.40,0.60 Z"></path></g><g transform="translate(174 223) rotate(0 1.5 12.5)" stroke="none"><path fill="#1e1e1e" d="M 2.32,-0.25 Q 2.32,-0.25 2.47,2.34 2.62,4.94 2.93,7.14 3.23,9.34 3.41,11.23 3.59,13.13 3.96,14.65 4.33,16.17 4.72,17.96 5.11,19.75 5.26,22.16 5.40,24.58 5.34,24.96 5.28,25.35 5.10,25.69 4.92,26.04 4.64,26.31 4.36,26.58 4.01,26.75 3.66,26.91 3.27,26.96 2.88,27.00 2.50,26.92 2.12,26.84 1.78,26.64 1.44,26.45 1.19,26.15 0.93,25.85 0.79,25.49 0.64,25.13 0.62,24.74 0.59,24.35 0.69,23.97 0.79,23.60 1.01,23.27 1.23,22.95 1.54,22.71 1.85,22.47 2.21,22.34 2.58,22.22 2.97,22.21 3.36,22.21 3.73,22.33 4.11,22.45 4.42,22.69 4.73,22.92 4.95,23.24 5.17,23.56 5.28,23.94 5.39,24.31 5.37,24.70 5.35,25.09 5.21,25.46 5.07,25.82 4.82,26.12 4.57,26.42 4.23,26.63 3.90,26.83 3.52,26.92 3.14,27.00 2.75,26.96 2.36,26.92 2.01,26.76 1.65,26.60 1.37,26.34 1.08,26.07 0.90,25.73 0.71,25.38 0.65,25.00 0.58,24.61 0.58,24.61 0.58,24.61 0.63,22.39 0.68,20.16 0.64,18.57 0.60,16.99 0.24,15.24 -0.10,13.49 -0.27,11.74 -0.44,10.00 -0.96,7.70 -1.47,5.40 -1.90,2.83 -2.32,0.25 -2.31,-0.02 -2.31,-0.30 -2.24,-0.57 -2.17,-0.85 -2.04,-1.09 -1.90,-1.34 -1.71,-1.55 -1.53,-1.76 -1.29,-1.92 -1.06,-2.07 -0.79,-2.17 -0.53,-2.27 -0.25,-2.30 0.02,-2.33 0.30,-2.29 0.58,-2.26 0.84,-2.15 1.10,-2.05 1.33,-1.89 1.56,-1.73 1.75,-1.51 1.93,-1.30 2.06,-1.05 2.19,-0.80 2.25,-0.53 2.32,-0.25 2.32,-0.25 L 2.32,-0.25 Z"></path></g><g transform="translate(618 112) rotate(0 3.5 6.5)" stroke="none"><path fill="#1e1e1e" d="M -1.97,-0.98 Q -1.97,-0.98 -1.43,-2.15 -0.89,-3.32 -0.30,-4.29 0.28,-5.26 1.09,-5.95 1.91,-6.64 2.94,-6.95 3.96,-7.26 5.29,-6.91 6.61,-6.55 7.36,-5.67 8.12,-4.78 8.31,-2.65 8.50,-0.51 8.65,1.50 8.79,3.51 8.81,6.26 8.83,9.01 8.80,11.58 8.76,14.16 9.23,15.46 9.71,16.76 9.75,17.08 9.79,17.40 9.72,17.72 9.66,18.03 9.49,18.31 9.33,18.59 9.09,18.80 8.84,19.01 8.54,19.13 8.25,19.25 7.92,19.27 7.60,19.29 7.29,19.21 6.98,19.13 6.71,18.95 6.44,18.77 6.25,18.52 6.05,18.26 5.94,17.96 5.84,17.65 5.83,17.33 5.83,17.01 5.93,16.70 6.03,16.40 6.22,16.14 6.42,15.88 6.68,15.70 6.95,15.51 7.26,15.42 7.56,15.34 7.89,15.35 8.21,15.36 8.51,15.48 8.81,15.60 9.06,15.80 9.30,16.01 9.47,16.28 9.64,16.56 9.71,16.87 9.79,17.19 9.75,17.51 9.72,17.83 9.59,18.12 9.46,18.42 9.24,18.65 9.02,18.89 8.74,19.04 8.45,19.19 8.13,19.25 7.82,19.30 7.50,19.26 7.18,19.21 6.89,19.06 6.61,18.91 6.38,18.68 6.16,18.45 6.02,18.15 5.89,17.86 5.89,17.86 5.89,17.86 5.47,16.07 5.06,14.28 4.90,11.75 4.75,9.22 4.49,6.72 4.23,4.21 3.71,1.47 3.19,-1.27 2.58,-0.14 1.97,0.98 1.82,1.20 1.68,1.43 1.48,1.61 1.28,1.79 1.05,1.92 0.82,2.04 0.56,2.11 0.30,2.18 0.04,2.19 -0.22,2.19 -0.48,2.13 -0.74,2.07 -0.98,1.96 -1.21,1.84 -1.42,1.66 -1.62,1.49 -1.77,1.28 -1.93,1.06 -2.03,0.81 -2.13,0.57 -2.17,0.30 -2.20,0.04 -2.18,-0.22 -2.15,-0.48 -2.06,-0.73 -1.97,-0.98 -1.97,-0.98 L -1.97,-0.98 Z"></path></g><g transform="translate(752 111) rotate(0 5.5 9.5)" stroke="none"><path fill="#1e1e1e" d="M 0,-2.32 Q 0,-2.32 1.44,-2.33 2.89,-2.34 4.41,-2.02 5.94,-1.70 7.53,-0.41 9.11,0.87 10.01,3.50 10.91,6.13 11.18,8.39 11.44,10.65 11.66,11.84 11.87,13.04 11.98,14.27 12.08,15.50 11.23,17.21 10.38,18.92 8.78,19.69 7.17,20.46 5.80,21.01 4.44,21.57 2.78,21.74 1.12,21.91 0.76,21.90 0.41,21.88 0.07,21.78 -0.27,21.67 -0.57,21.49 -0.88,21.31 -1.14,21.06 -1.39,20.81 -1.58,20.50 -1.77,20.20 -1.87,19.86 -1.98,19.52 -2.01,19.16 -2.03,18.81 -1.97,18.46 -1.91,18.11 -1.77,17.78 -1.62,17.45 -1.41,17.17 -1.19,16.89 -0.91,16.66 -0.63,16.44 -0.31,16.29 0.01,16.14 0.36,16.07 0.71,16.01 1.84,16.00 2.97,15.99 4.12,16.00 5.28,16.01 7.87,15.99 10.45,15.97 10.94,16.05 11.42,16.13 11.85,16.36 12.28,16.59 12.62,16.94 12.96,17.30 13.16,17.74 13.37,18.19 13.42,18.67 13.47,19.16 13.37,19.64 13.26,20.12 13.01,20.53 12.76,20.95 12.38,21.27 12.01,21.59 11.56,21.77 11.10,21.95 10.61,21.98 10.12,22.00 9.65,21.87 9.18,21.74 8.78,21.46 8.37,21.19 8.07,20.80 7.78,20.41 7.62,19.95 7.47,19.48 7.47,18.99 7.47,18.50 7.62,18.04 7.78,17.58 8.08,17.19 8.37,16.80 8.78,16.52 9.18,16.25 9.66,16.12 10.13,15.99 10.62,16.01 11.10,16.04 11.56,16.22 12.01,16.40 12.39,16.72 12.76,17.04 13.01,17.46 13.26,17.88 13.37,18.35 13.47,18.83 13.42,19.32 13.37,19.81 13.16,20.25 12.95,20.69 12.62,21.05 12.28,21.40 11.85,21.63 11.42,21.86 10.93,21.94 10.45,22.02 10.45,22.02 10.45,22.02 7.86,22.00 5.27,21.97 3.20,21.94 1.12,21.91 0.76,21.90 0.41,21.88 0.07,21.78 -0.27,21.67 -0.57,21.49 -0.88,21.31 -1.14,21.06 -1.39,20.81 -1.58,20.50 -1.76,20.20 -1.87,19.86 -1.98,19.52 -2.01,19.16 -2.03,18.81 -1.97,18.46 -1.91,18.11 -1.77,17.78 -1.62,17.45 -1.41,17.17 -1.19,16.89 -0.91,16.66 -0.63,16.44 -0.31,16.29 0.01,16.14 0.36,16.07 0.71,16.01 2.01,16.08 3.31,16.16 5.05,15.90 6.79,15.65 7.26,14.58 7.72,13.52 7.67,12.38 7.61,11.24 7.24,9.38 6.88,7.52 6.28,5.87 5.69,4.21 4.27,3.27 2.85,2.34 1.42,2.33 0,2.32 -0.27,2.28 -0.55,2.25 -0.81,2.15 -1.07,2.05 -1.30,1.89 -1.53,1.73 -1.72,1.52 -1.90,1.31 -2.03,1.07 -2.16,0.82 -2.23,0.55 -2.30,0.27 -2.30,-0.00 -2.30,-0.27 -2.23,-0.55 -2.16,-0.82 -2.03,-1.07 -1.90,-1.31 -1.72,-1.52 -1.53,-1.73 -1.30,-1.89 -1.07,-2.05 -0.81,-2.15 -0.55,-2.25 -0.27,-2.28 0.00,-2.32 0.00,-2.32 L 0,-2.32 Z"></path></g><g transform="translate(614 239) rotate(0 3 10.5)" stroke="none"><path fill="#1e1e1e" d="M 0.35,-2.50 Q 0.35,-2.50 2.35,-2.09 4.34,-1.67 5.52,-1.57 6.69,-1.48 7.83,-0.79 8.97,-0.11 9.58,1.44 10.20,3.00 10.32,4.45 10.44,5.91 10.48,7.18 10.52,8.45 10.04,9.63 9.56,10.81 9.29,10.94 9.01,11.07 8.81,11.34 8.61,11.61 8.35,11.82 8.09,12.04 7.79,12.18 7.49,12.33 7.16,12.40 6.83,12.47 6.50,12.45 6.16,12.44 5.84,12.35 5.52,12.26 5.23,12.09 4.93,11.93 4.69,11.70 4.45,11.47 4.27,11.18 4.09,10.90 3.98,10.59 3.87,10.27 3.84,9.93 3.81,9.60 3.86,9.27 3.91,8.94 4.04,8.63 4.17,8.32 6.73,8.15 9.28,7.99 10.55,8.52 11.82,9.05 13.19,11.05 14.56,13.05 14.70,14.53 14.83,16.01 14.82,17.52 14.82,19.03 14.02,20.55 13.21,22.07 11.32,22.79 9.42,23.50 7.52,23.54 5.62,23.58 4.22,23.32 2.82,23.06 0.86,22.21 -1.09,21.35 -2.13,21.09 -3.17,20.84 -5.02,19.69 -6.87,18.55 -7.19,18.27 -7.52,18.00 -7.74,17.63 -7.96,17.27 -8.05,16.85 -8.15,16.43 -8.10,16.01 -8.05,15.58 -7.88,15.20 -7.70,14.81 -7.40,14.50 -7.11,14.19 -6.73,13.99 -6.36,13.79 -5.94,13.72 -5.51,13.65 -5.09,13.72 -4.67,13.78 -4.30,13.98 -3.92,14.18 -3.62,14.49 -3.33,14.80 -3.15,15.19 -2.97,15.58 -2.92,16.00 -2.88,16.42 -2.97,16.84 -3.06,17.26 -3.28,17.62 -3.50,17.99 -3.82,18.27 -4.15,18.54 -4.54,18.70 -4.94,18.86 -5.37,18.88 -5.79,18.91 -6.20,18.79 -6.62,18.68 -6.97,18.44 -7.32,18.20 -7.58,17.86 -7.84,17.52 -7.98,17.12 -8.11,16.72 -8.11,16.29 -8.12,15.86 -7.98,15.46 -7.84,15.05 -7.59,14.71 -7.33,14.37 -6.97,14.13 -6.62,13.89 -6.21,13.78 -5.80,13.66 -5.37,13.69 -4.95,13.71 -4.55,13.87 -4.15,14.02 -4.15,14.02 -4.15,14.02 -2.89,15.01 -1.62,16.00 -0.50,16.33 0.61,16.65 2.98,17.37 5.36,18.10 7.20,18.51 9.05,18.92 8.97,17.70 8.89,16.47 8.74,15.18 8.59,13.90 7.63,13.40 6.66,12.90 7.84,11.98 9.01,11.07 8.81,11.34 8.61,11.61 8.35,11.82 8.09,12.04 7.79,12.18 7.49,12.33 7.16,12.40 6.83,12.47 6.50,12.45 6.16,12.44 5.84,12.35 5.52,12.26 5.23,12.09 4.93,11.93 4.69,11.70 4.45,11.47 4.27,11.19 4.09,10.90 3.98,10.59 3.87,10.27 3.84,9.93 3.81,9.60 3.86,9.27 3.91,8.94 4.04,8.63 4.17,8.32 4.73,7.29 5.29,6.26 5.60,4.69 5.92,3.12 4.81,2.97 3.70,2.82 1.67,2.66 -0.35,2.50 -0.65,2.42 -0.94,2.34 -1.21,2.20 -1.48,2.05 -1.70,1.84 -1.93,1.63 -2.09,1.38 -2.26,1.12 -2.36,0.84 -2.47,0.55 -2.50,0.25 -2.53,-0.05 -2.48,-0.35 -2.44,-0.65 -2.33,-0.94 -2.21,-1.22 -2.03,-1.47 -1.85,-1.71 -1.62,-1.91 -1.39,-2.11 -1.12,-2.25 -0.84,-2.38 -0.54,-2.45 -0.25,-2.51 0.05,-2.51 0.35,-2.50 0.35,-2.50 L 0.35,-2.50 Z"></path></g><g transform="translate(748 235) rotate(0 1 7.5)" stroke="none"><path fill="#1e1e1e" d="M 2.19,0.73 Q 2.19,0.73 1.20,3.27 0.21,5.82 -0.51,8.00 -1.25,10.19 -1.62,11.19 -1.98,12.20 -0.61,12.31 0.76,12.42 3.17,12.54 5.58,12.65 5.95,12.73 6.31,12.82 6.63,13.01 6.95,13.20 7.20,13.49 7.44,13.78 7.57,14.13 7.71,14.47 7.73,14.85 7.75,15.22 7.65,15.58 7.55,15.94 7.34,16.25 7.13,16.56 6.83,16.79 6.53,17.01 6.17,17.13 5.82,17.25 5.44,17.25 5.07,17.25 4.71,17.13 4.36,17.00 4.06,16.78 3.76,16.55 3.56,16.24 3.35,15.93 3.25,15.57 3.15,15.21 3.17,14.83 3.19,14.46 3.33,14.11 3.47,13.76 3.71,13.48 3.96,13.19 4.28,13.00 4.60,12.81 4.97,12.73 5.33,12.65 5.71,12.69 6.08,12.74 6.42,12.89 6.76,13.05 7.03,13.31 7.30,13.57 7.47,13.90 7.65,14.23 7.71,14.60 7.76,14.97 7.70,15.34 7.64,15.71 7.46,16.04 7.29,16.37 7.01,16.63 6.74,16.88 6.40,17.04 6.06,17.20 5.69,17.24 5.32,17.27 5.32,17.27 5.32,17.27 2.53,17.01 -0.24,16.75 -1.81,16.21 -3.38,15.67 -4.28,14.47 -5.19,13.27 -5.00,11.21 -4.81,9.15 -4.24,6.84 -3.66,4.52 -2.93,1.89 -2.19,-0.73 -2.07,-0.98 -1.95,-1.23 -1.77,-1.45 -1.60,-1.66 -1.37,-1.83 -1.15,-2.00 -0.90,-2.11 -0.64,-2.21 -0.36,-2.26 -0.09,-2.30 0.18,-2.28 0.46,-2.26 0.72,-2.17 0.98,-2.08 1.22,-1.93 1.46,-1.79 1.65,-1.58 1.84,-1.38 1.98,-1.14 2.12,-0.90 2.20,-0.63 2.28,-0.37 2.29,-0.09 2.30,0.18 2.24,0.45 2.19,0.73 2.19,0.73 L 2.19,0.73 Z"></path></g><g transform="translate(760 234) rotate(0 0 12.5)" stroke="none"><path fill="#1e1e1e" d="M 2.23,0 Q 2.23,0 2.10,2.58 1.98,5.17 1.89,7.71 1.80,10.24 1.78,12.19 1.76,14.13 1.83,15.53 1.90,16.93 1.96,18.38 2.01,19.84 2.06,22.17 2.11,24.50 2.05,24.83 2.00,25.17 1.84,25.47 1.68,25.77 1.43,26.01 1.18,26.24 0.87,26.39 0.56,26.53 0.22,26.57 -0.11,26.60 -0.44,26.53 -0.78,26.46 -1.07,26.28 -1.36,26.11 -1.58,25.84 -1.80,25.58 -1.93,25.27 -2.06,24.95 -2.08,24.61 -2.09,24.27 -2.00,23.94 -1.91,23.61 -1.72,23.33 -1.53,23.04 -1.26,22.84 -0.98,22.63 -0.66,22.52 -0.34,22.41 0.00,22.41 0.34,22.41 0.66,22.52 0.98,22.63 1.26,22.84 1.53,23.04 1.72,23.33 1.91,23.61 2.00,23.94 2.09,24.27 2.08,24.61 2.06,24.95 1.93,25.27 1.80,25.58 1.58,25.85 1.36,26.11 1.07,26.28 0.78,26.46 0.44,26.53 0.11,26.60 -0.22,26.57 -0.56,26.53 -0.87,26.39 -1.18,26.24 -1.43,26.01 -1.68,25.77 -1.84,25.47 -2.00,25.17 -2.05,24.83 -2.11,24.49 -2.11,24.50 -2.11,24.50 -2.06,22.17 -2.01,19.84 -1.96,18.38 -1.90,16.93 -1.83,15.53 -1.76,14.13 -1.78,12.19 -1.80,10.24 -1.89,7.71 -1.98,5.17 -2.10,2.58 -2.23,0 -2.19,-0.26 -2.16,-0.53 -2.07,-0.78 -1.97,-1.03 -1.82,-1.25 -1.66,-1.47 -1.46,-1.65 -1.26,-1.83 -1.02,-1.96 -0.79,-2.08 -0.52,-2.15 -0.26,-2.21 0.00,-2.21 0.26,-2.21 0.53,-2.15 0.79,-2.08 1.02,-1.96 1.26,-1.83 1.46,-1.65 1.66,-1.47 1.82,-1.25 1.97,-1.03 2.07,-0.78 2.16,-0.53 2.19,-0.26 2.23,0.00 2.23,0.00 L 2.23,0 Z"></path></g><g transform="translate(76 118) rotate(0 0.5 1)" stroke="none"><path fill="#e03131" d="M 1.63,-1.63 Q 1.63,-1.63 2.10,-1.59 2.57,-1.54 2.75,-1.32 2.92,-1.10 3.03,-0.84 3.15,-0.59 3.20,-0.31 3.25,-0.03 3.24,0.24 3.22,0.52 3.13,0.79 3.05,1.06 2.90,1.30 2.76,1.54 2.56,1.74 2.36,1.94 2.12,2.09 1.88,2.23 1.61,2.31 1.34,2.40 1.06,2.42 0.78,2.43 0.50,2.38 0.22,2.33 -0.02,2.22 -0.28,2.10 -0.50,1.93 -0.73,1.75 -0.57,-0.02 -0.41,-1.81 -0.07,-1.97 0.26,-2.14 0.64,-2.18 1.01,-2.23 1.38,-2.15 1.75,-2.07 2.08,-1.88 2.41,-1.69 2.66,-1.41 2.91,-1.12 3.05,-0.77 3.19,-0.42 3.22,-0.05 3.25,0.32 3.15,0.69 3.05,1.05 2.85,1.37 2.64,1.68 2.34,1.92 2.04,2.15 1.68,2.28 1.33,2.40 0.95,2.41 0.57,2.41 0.21,2.30 -0.14,2.18 -0.44,1.95 -0.75,1.73 -0.96,1.42 -1.18,1.11 -1.29,0.75 -1.39,0.38 -1.38,0.00 -1.36,-0.36 -1.23,-0.72 -1.09,-1.07 -0.85,-1.36 -0.61,-1.65 -0.29,-1.85 0.02,-2.05 0.39,-2.14 0.76,-2.22 1.14,-2.19 1.51,-2.15 1.86,-2.00 2.20,-1.84 2.48,-1.59 2.76,-1.33 2.94,-1.00 3.12,-0.67 3.19,-0.29 3.26,0.07 3.20,0.44 3.14,0.82 2.97,1.15 2.80,1.49 2.68,-0.02 2.57,-1.54 2.75,-1.32 2.92,-1.10 3.03,-0.84 3.15,-0.59 3.20,-0.31 3.25,-0.03 3.24,0.24 3.22,0.52 3.13,0.79 3.05,1.06 2.90,1.30 2.76,1.54 2.56,1.74 2.36,1.94 2.12,2.09 1.88,2.23 1.61,2.31 1.34,2.40 1.06,2.42 0.78,2.43 0.50,2.38 0.22,2.33 -0.02,2.22 -0.28,2.10 -0.50,1.93 -0.73,1.75 -1.18,1.69 -1.63,1.63 -1.80,1.41 -1.97,1.19 -2.09,0.94 -2.20,0.68 -2.25,0.41 -2.30,0.13 -2.29,-0.13 -2.27,-0.41 -2.19,-0.68 -2.10,-0.94 -1.96,-1.18 -1.82,-1.42 -1.62,-1.62 -1.42,-1.82 -1.18,-1.96 -0.94,-2.10 -0.68,-2.19 -0.41,-2.27 -0.13,-2.29 0.13,-2.30 0.41,-2.25 0.68,-2.20 0.94,-2.09 1.19,-1.97 1.41,-1.80 1.63,-1.63 1.63,-1.63 L 1.63,-1.63 Z"></path></g><g transform="translate(99 116) rotate(0 0.5 -0.5)" stroke="none"><path fill="#e03131" d="M -1.60,-1.60 Q -1.60,-1.60 -1.35,-1.92 -1.09,-2.24 -0.78,-2.47 -0.47,-2.69 -0.11,-2.80 0.25,-2.92 0.63,-2.90 1.02,-2.89 1.38,-2.76 1.73,-2.63 2.03,-2.39 2.33,-2.15 2.54,-1.83 2.74,-1.51 2.84,-1.13 2.93,-0.76 2.90,-0.38 2.87,-0.00 2.72,0.34 2.56,0.69 2.31,0.98 2.05,1.26 1.72,1.45 1.39,1.64 1.01,1.71 0.63,1.79 0.25,1.73 -0.11,1.68 -0.46,1.51 -0.80,1.34 -1.07,1.07 -1.34,0.80 -1.51,0.46 -1.68,0.11 -1.73,-0.26 -1.79,-0.63 -1.71,-1.01 -1.64,-1.39 -1.45,-1.72 -1.26,-2.05 -0.98,-2.31 -0.69,-2.56 -0.34,-2.72 0.00,-2.87 0.38,-2.90 0.76,-2.93 1.13,-2.84 1.51,-2.74 1.83,-2.54 2.15,-2.33 2.39,-2.03 2.63,-1.73 2.76,-1.37 2.89,-1.02 2.90,-0.63 2.91,-0.25 2.80,0.11 2.69,0.47 2.47,0.78 2.24,1.09 2.24,1.09 2.24,1.09 1.92,1.35 1.60,1.60 1.39,1.77 1.17,1.94 0.92,2.05 0.67,2.16 0.40,2.21 0.13,2.26 -0.13,2.24 -0.40,2.23 -0.67,2.15 -0.93,2.07 -1.16,1.92 -1.40,1.78 -1.59,1.59 -1.78,1.40 -1.92,1.16 -2.07,0.93 -2.15,0.67 -2.23,0.40 -2.24,0.13 -2.26,-0.13 -2.21,-0.40 -2.16,-0.67 -2.05,-0.92 -1.94,-1.17 -1.77,-1.39 -1.60,-1.60 -1.60,-1.60 L -1.60,-1.60 Z"></path></g><g transform="translate(77 134) rotate(0 7 -1)" stroke="none"><path fill="#e03131" d="M 0,-2.64 Q 0,-2.64 1.15,-2.66 2.3,-2.68 3.37,-2.70 4.45,-2.72 5.83,-2.40 7.22,-2.09 8.94,-2.00 10.66,-1.91 10.42,-0.90 10.19,0.11 9.70,0.01 9.20,-0.08 8.77,-0.33 8.33,-0.58 8.00,-0.96 7.67,-1.33 7.47,-1.80 7.28,-2.26 7.24,-2.76 7.20,-3.26 7.33,-3.75 7.45,-4.23 7.73,-4.65 8.00,-5.08 8.40,-5.39 8.79,-5.70 9.26,-5.87 9.74,-6.04 10.24,-6.05 10.74,-6.06 11.22,-5.91 11.70,-5.76 12.10,-5.46 12.51,-5.16 12.80,-4.75 13.09,-4.34 13.23,-3.86 13.38,-3.38 13.36,-2.88 13.34,-2.38 13.17,-1.91 12.99,-1.44 12.67,-1.05 12.35,-0.66 11.93,-0.39 11.50,-0.12 11.01,-0.00 10.53,0.10 10.02,0.06 9.52,0.01 9.06,-0.18 8.60,-0.38 8.23,-0.72 7.86,-1.06 7.62,-1.50 7.37,-1.94 7.28,-2.43 7.19,-2.92 7.26,-3.42 7.34,-3.92 7.56,-4.37 7.79,-4.82 8.15,-5.17 8.51,-5.52 8.96,-5.74 9.41,-5.96 9.91,-6.02 10.41,-6.09 10.41,-6.09 10.41,-6.09 12.82,-5.59 15.23,-5.09 15.81,-4.09 16.40,-3.09 16.07,-0.76 15.73,1.56 14.58,2.46 13.43,3.36 11.90,3.56 10.36,3.76 9.26,3.68 8.16,3.60 6.95,3.42 5.74,3.24 4.02,2.96 2.3,2.68 1.15,2.66 0,2.64 -0.31,2.60 -0.63,2.57 -0.93,2.45 -1.23,2.34 -1.49,2.16 -1.75,1.98 -1.96,1.74 -2.17,1.50 -2.32,1.22 -2.47,0.93 -2.55,0.62 -2.62,0.31 -2.62,-0.00 -2.62,-0.31 -2.55,-0.62 -2.47,-0.93 -2.32,-1.22 -2.17,-1.50 -1.96,-1.74 -1.75,-1.98 -1.49,-2.16 -1.23,-2.34 -0.93,-2.45 -0.63,-2.57 -0.31,-2.60 0.00,-2.64 0.00,-2.64 L 0,-2.64 Z"></path></g><g transform="translate(223 239) rotate(0 0.00004999999998744897 0.00005000000000165983)" stroke="none"><path fill="#e03131" d="M 1.57,-1.57 Q 1.57,-1.57 1.77,-1.27 1.98,-0.98 2.09,-0.64 2.20,-0.29 2.19,0.05 2.18,0.41 2.05,0.75 1.93,1.09 1.70,1.37 1.48,1.65 1.18,1.84 0.87,2.04 0.52,2.12 0.18,2.21 -0.17,2.18 -0.53,2.15 -0.86,2.01 -1.19,1.87 -1.46,1.63 -1.73,1.39 -1.90,1.07 -2.08,0.76 -2.15,0.41 -2.21,0.05 -2.17,-0.29 -2.12,-0.65 -1.96,-0.97 -1.80,-1.29 -1.54,-1.54 -1.29,-1.80 -0.97,-1.96 -0.65,-2.12 -0.29,-2.17 0.06,-2.21 0.41,-2.15 0.76,-2.08 1.07,-1.90 1.39,-1.73 1.63,-1.46 1.87,-1.19 2.01,-0.86 2.15,-0.53 2.18,-0.17 2.21,0.18 2.12,0.52 2.03,0.87 1.84,1.18 1.65,1.48 1.37,1.70 1.09,1.93 0.75,2.05 0.41,2.18 0.05,2.19 -0.30,2.20 -0.64,2.09 -0.98,1.98 -1.27,1.77 -1.57,1.56 -1.57,1.57 -1.57,1.57 -1.73,1.35 -1.90,1.14 -2.01,0.90 -2.12,0.66 -2.16,0.39 -2.21,0.13 -2.20,-0.13 -2.18,-0.40 -2.10,-0.65 -2.02,-0.91 -1.88,-1.14 -1.74,-1.36 -1.55,-1.55 -1.36,-1.74 -1.14,-1.88 -0.91,-2.02 -0.65,-2.10 -0.40,-2.18 -0.13,-2.20 0.13,-2.21 0.39,-2.16 0.66,-2.12 0.90,-2.01 1.14,-1.90 1.35,-1.73 1.57,-1.57 1.57,-1.57 L 1.57,-1.57 Z"></path></g><g transform="translate(246 246) rotate(0 0.00004999999998744897 0.00005000000000165983)" stroke="none"><path fill="#e03131" d="M 1.57,-1.57 Q 1.57,-1.57 1.77,-1.27 1.98,-0.98 2.09,-0.64 2.20,-0.29 2.19,0.05 2.18,0.41 2.05,0.75 1.93,1.09 1.70,1.37 1.48,1.65 1.18,1.84 0.87,2.04 0.52,2.12 0.18,2.21 -0.17,2.18 -0.53,2.15 -0.86,2.01 -1.19,1.87 -1.46,1.63 -1.73,1.39 -1.90,1.07 -2.08,0.76 -2.15,0.41 -2.21,0.05 -2.17,-0.29 -2.12,-0.65 -1.96,-0.97 -1.80,-1.29 -1.54,-1.54 -1.29,-1.80 -0.97,-1.96 -0.65,-2.12 -0.29,-2.17 0.06,-2.21 0.41,-2.15 0.76,-2.08 1.07,-1.90 1.39,-1.73 1.63,-1.46 1.87,-1.19 2.01,-0.86 2.15,-0.53 2.18,-0.17 2.21,0.18 2.12,0.52 2.03,0.87 1.84,1.18 1.65,1.48 1.37,1.70 1.09,1.93 0.75,2.05 0.41,2.18 0.05,2.19 -0.30,2.20 -0.64,2.09 -0.98,1.98 -1.27,1.77 -1.57,1.56 -1.57,1.57 -1.57,1.57 -1.73,1.35 -1.90,1.14 -2.01,0.90 -2.12,0.66 -2.16,0.39 -2.21,0.13 -2.20,-0.13 -2.18,-0.40 -2.10,-0.65 -2.02,-0.91 -1.88,-1.14 -1.74,-1.36 -1.55,-1.55 -1.36,-1.74 -1.14,-1.88 -0.91,-2.02 -0.65,-2.10 -0.40,-2.18 -0.13,-2.20 0.13,-2.21 0.39,-2.16 0.66,-2.12 0.90,-2.01 1.14,-1.90 1.35,-1.73 1.57,-1.57 1.57,-1.57 L 1.57,-1.57 Z"></path></g><g transform="translate(804 125) rotate(0 0.00005000000000165983 0.00005000000000165983)" stroke="none"><path fill="#e03131" d="M 1.57,-1.57 Q 1.57,-1.57 1.77,-1.27 1.98,-0.98 2.09,-0.64 2.20,-0.29 2.19,0.05 2.18,0.41 2.05,0.75 1.93,1.09 1.70,1.37 1.48,1.65 1.18,1.84 0.87,2.04 0.52,2.12 0.18,2.21 -0.17,2.18 -0.53,2.15 -0.86,2.01 -1.19,1.87 -1.46,1.63 -1.73,1.39 -1.90,1.07 -2.08,0.76 -2.15,0.41 -2.21,0.05 -2.17,-0.29 -2.12,-0.65 -1.96,-0.97 -1.80,-1.29 -1.54,-1.54 -1.29,-1.80 -0.97,-1.96 -0.65,-2.12 -0.29,-2.17 0.06,-2.21 0.41,-2.15 0.76,-2.08 1.07,-1.90 1.39,-1.73 1.63,-1.46 1.87,-1.19 2.01,-0.86 2.15,-0.53 2.18,-0.17 2.21,0.18 2.12,0.52 2.03,0.87 1.84,1.18 1.65,1.48 1.37,1.70 1.09,1.93 0.75,2.05 0.41,2.18 0.05,2.19 -0.30,2.20 -0.64,2.09 -0.98,1.98 -1.27,1.77 -1.57,1.56 -1.57,1.57 -1.57,1.57 -1.73,1.35 -1.90,1.14 -2.01,0.90 -2.12,0.66 -2.16,0.39 -2.21,0.13 -2.20,-0.13 -2.18,-0.40 -2.10,-0.65 -2.02,-0.91 -1.88,-1.14 -1.74,-1.36 -1.55,-1.55 -1.36,-1.74 -1.14,-1.88 -0.91,-2.02 -0.65,-2.10 -0.40,-2.18 -0.13,-2.20 0.13,-2.21 0.39,-2.16 0.66,-2.12 0.90,-2.01 1.14,-1.90 1.35,-1.73 1.57,-1.57 1.57,-1.57 L 1.57,-1.57 Z"></path></g><g transform="translate(677 253) rotate(0 -0.5 -1)" stroke="none"><path fill="#e03131" d="M -2.72,-0.07 Q -2.72,-0.07 -2.83,-0.44 -2.95,-0.81 -2.94,-1.20 -2.93,-1.59 -2.80,-1.96 -2.67,-2.32 -2.42,-2.62 -2.18,-2.93 -1.85,-3.14 -1.53,-3.35 -1.15,-3.44 -0.77,-3.54 -0.39,-3.51 -0.00,-3.48 0.35,-3.33 0.71,-3.17 1.00,-2.92 1.29,-2.66 1.48,-2.32 1.67,-1.98 1.75,-1.60 1.82,-1.22 1.77,-0.83 1.72,-0.45 1.55,-0.10 1.38,0.24 1.10,0.52 0.83,0.79 0.48,0.97 0.13,1.14 -0.24,1.19 -0.63,1.25 -1.01,1.18 -1.39,1.10 -1.73,0.91 -2.07,0.72 -2.33,0.43 -2.59,0.15 -2.75,-0.20 -2.90,-0.56 -2.93,-0.95 -2.97,-1.33 -2.87,-1.71 -2.78,-2.09 -2.57,-2.42 -2.36,-2.74 -2.06,-2.99 -1.76,-3.23 -1.39,-3.37 -1.03,-3.50 -0.64,-3.52 -0.25,-3.53 0.11,-3.41 0.48,-3.30 0.80,-3.08 1.11,-2.85 1.34,-2.53 1.57,-2.22 1.57,-2.22 1.57,-2.22 1.81,-2.00 2.06,-1.78 2.24,-1.51 2.42,-1.23 2.54,-0.92 2.65,-0.62 2.68,-0.29 2.72,0.03 2.68,0.35 2.63,0.68 2.51,0.98 2.39,1.29 2.20,1.56 2.01,1.83 1.77,2.04 1.52,2.26 1.22,2.41 0.93,2.55 0.61,2.63 0.29,2.70 -0.03,2.70 -0.36,2.70 -0.67,2.61 -0.99,2.53 -1.28,2.38 -1.57,2.22 -2.14,1.07 L -2.72,-0.07 Z"></path></g><g transform="translate(245 132) rotate(0 0.00004999999998744897 0.00005000000000165983)" stroke="none"><path fill="#1971c2" d="M 1.57,-1.57 Q 1.57,-1.57 1.77,-1.27 1.98,-0.98 2.09,-0.64 2.20,-0.29 2.19,0.05 2.18,0.41 2.05,0.75 1.93,1.09 1.70,1.37 1.48,1.65 1.18,1.84 0.87,2.04 0.52,2.12 0.18,2.21 -0.17,2.18 -0.53,2.15 -0.86,2.01 -1.19,1.87 -1.46,1.63 -1.73,1.39 -1.90,1.07 -2.08,0.76 -2.15,0.41 -2.21,0.05 -2.17,-0.29 -2.12,-0.65 -1.96,-0.97 -1.80,-1.29 -1.54,-1.54 -1.29,-1.80 -0.97,-1.96 -0.65,-2.12 -0.29,-2.17 0.06,-2.21 0.41,-2.15 0.76,-2.08 1.07,-1.90 1.39,-1.73 1.63,-1.46 1.87,-1.19 2.01,-0.86 2.15,-0.53 2.18,-0.17 2.21,0.18 2.12,0.52 2.03,0.87 1.84,1.18 1.65,1.48 1.37,1.70 1.09,1.93 0.75,2.05 0.41,2.18 0.05,2.19 -0.30,2.20 -0.64,2.09 -0.98,1.98 -1.27,1.77 -1.57,1.56 -1.57,1.57 -1.57,1.57 -1.73,1.35 -1.90,1.14 -2.01,0.90 -2.12,0.66 -2.16,0.39 -2.21,0.13 -2.20,-0.13 -2.18,-0.40 -2.10,-0.65 -2.02,-0.91 -1.88,-1.14 -1.74,-1.36 -1.55,-1.55 -1.36,-1.74 -1.14,-1.88 -0.91,-2.02 -0.65,-2.10 -0.40,-2.18 -0.13,-2.20 0.13,-2.21 0.39,-2.16 0.66,-2.12 0.90,-2.01 1.14,-1.90 1.35,-1.73 1.57,-1.57 1.57,-1.57 L 1.57,-1.57 Z"></path></g><g transform="translate(255 153) rotate(0 -1.5 -0.5)" stroke="none"><path fill="#1971c2" d="M -0.72,2.16 Q -0.72,2.16 -1.60,1.93 -2.48,1.70 -2.82,1.52 -3.17,1.34 -3.44,1.06 -3.71,0.78 -3.87,0.42 -4.03,0.07 -4.08,-0.31 -4.12,-0.69 -4.04,-1.07 -3.96,-1.45 -3.76,-1.79 -3.56,-2.12 -3.26,-2.37 -2.97,-2.63 -2.61,-2.77 -2.24,-2.92 -1.86,-2.94 -1.47,-2.96 -1.09,-2.86 -0.72,-2.76 -0.39,-2.54 -0.07,-2.32 0.15,-2.01 0.39,-1.70 0.52,-1.33 0.64,-0.97 0.64,-0.58 0.64,-0.19 0.52,0.17 0.40,0.54 0.16,0.85 -0.06,1.16 -0.38,1.38 -0.70,1.60 -1.08,1.70 -1.45,1.81 -1.84,1.79 -2.23,1.77 -2.59,1.63 -2.95,1.48 -3.25,1.23 -3.55,0.98 -3.75,0.65 -3.95,0.32 -4.04,-0.05 -4.12,-0.43 -4.08,-0.82 -4.04,-1.21 -3.88,-1.56 -3.71,-1.91 -3.45,-2.20 -3.18,-2.48 -2.84,-2.66 -2.49,-2.85 -2.11,-2.91 -1.73,-2.97 -1.34,-2.91 -0.96,-2.85 -0.96,-2.85 -0.96,-2.85 -0.12,-2.51 0.72,-2.16 0.97,-2.04 1.22,-1.93 1.43,-1.75 1.64,-1.58 1.81,-1.36 1.97,-1.14 2.08,-0.89 2.19,-0.63 2.23,-0.36 2.28,-0.09 2.26,0.18 2.23,0.45 2.15,0.71 2.06,0.97 1.91,1.21 1.77,1.44 1.57,1.63 1.37,1.82 1.13,1.96 0.89,2.10 0.63,2.17 0.36,2.25 0.09,2.26 -0.18,2.27 -0.45,2.22 -0.72,2.16 -0.72,2.16 L -0.72,2.16 Z"></path></g><g transform="translate(121 151) rotate(0 0.5 0)" stroke="none"><path fill="#1971c2" d="M 0.57,-2.33 Q 0.57,-2.33 0.94,-2.27 1.32,-2.21 1.65,-2.03 1.98,-1.85 2.24,-1.58 2.50,-1.31 2.66,-0.96 2.82,-0.62 2.86,-0.24 2.90,0.12 2.82,0.49 2.74,0.86 2.54,1.18 2.35,1.51 2.06,1.75 1.77,2.00 1.42,2.14 1.07,2.28 0.69,2.30 0.32,2.32 -0.04,2.22 -0.40,2.11 -0.71,1.90 -1.03,1.69 -1.25,1.39 -1.48,1.09 -1.60,0.73 -1.72,0.37 -1.72,-0.00 -1.72,-0.37 -1.60,-0.73 -1.48,-1.09 -1.25,-1.39 -1.03,-1.69 -0.71,-1.90 -0.40,-2.11 -0.04,-2.22 0.32,-2.32 0.70,-2.30 1.07,-2.28 1.42,-2.14 1.77,-2.00 2.06,-1.75 2.35,-1.51 2.54,-1.18 2.74,-0.86 2.82,-0.49 2.90,-0.12 2.86,0.24 2.82,0.62 2.66,0.96 2.50,1.31 2.24,1.58 1.98,1.85 1.65,2.03 1.31,2.21 0.94,2.27 0.57,2.33 0.57,2.33 0.57,2.33 0.28,2.37 -0.00,2.40 -0.28,2.36 -0.57,2.33 -0.84,2.23 -1.11,2.12 -1.35,1.96 -1.59,1.79 -1.78,1.58 -1.97,1.36 -2.11,1.10 -2.24,0.85 -2.31,0.57 -2.38,0.28 -2.38,-0.00 -2.38,-0.29 -2.31,-0.57 -2.24,-0.85 -2.11,-1.11 -1.97,-1.36 -1.78,-1.58 -1.59,-1.80 -1.35,-1.96 -1.11,-2.12 -0.84,-2.23 -0.57,-2.33 0.00,-2.33 L 0.57,-2.33 Z"></path></g><g transform="translate(127 115) rotate(0 0.00004999999998744897 0.00005000000000165983)" stroke="none"><path fill="#1971c2" d="M 1.57,-1.57 Q 1.57,-1.57 1.77,-1.27 1.98,-0.98 2.09,-0.64 2.20,-0.29 2.19,0.05 2.18,0.41 2.05,0.75 1.93,1.09 1.70,1.37 1.48,1.65 1.18,1.84 0.87,2.04 0.52,2.12 0.18,2.21 -0.17,2.18 -0.53,2.15 -0.86,2.01 -1.19,1.87 -1.46,1.63 -1.73,1.39 -1.90,1.07 -2.08,0.76 -2.15,0.41 -2.21,0.05 -2.17,-0.29 -2.12,-0.65 -1.96,-0.97 -1.80,-1.29 -1.54,-1.54 -1.29,-1.80 -0.97,-1.96 -0.65,-2.12 -0.29,-2.17 0.06,-2.21 0.41,-2.15 0.76,-2.08 1.07,-1.90 1.39,-1.73 1.63,-1.46 1.87,-1.19 2.01,-0.86 2.15,-0.53 2.18,-0.17 2.21,0.18 2.12,0.52 2.03,0.87 1.84,1.18 1.65,1.48 1.37,1.70 1.09,1.93 0.75,2.05 0.41,2.18 0.05,2.19 -0.30,2.20 -0.64,2.09 -0.98,1.98 -1.27,1.77 -1.57,1.56 -1.57,1.57 -1.57,1.57 -1.73,1.35 -1.90,1.14 -2.01,0.90 -2.12,0.66 -2.16,0.39 -2.21,0.13 -2.20,-0.13 -2.18,-0.40 -2.10,-0.65 -2.02,-0.91 -1.88,-1.14 -1.74,-1.36 -1.55,-1.55 -1.36,-1.74 -1.14,-1.88 -0.91,-2.02 -0.65,-2.10 -0.40,-2.18 -0.13,-2.20 0.13,-2.21 0.39,-2.16 0.66,-2.12 0.90,-2.01 1.14,-1.90 1.35,-1.73 1.57,-1.57 1.57,-1.57 L 1.57,-1.57 Z"></path></g><g transform="translate(97 234) rotate(0 0.00004999999998744897 0.00005000000000165983)" stroke="none"><path fill="#1971c2" d="M 1.57,-1.57 Q 1.57,-1.57 1.77,-1.27 1.98,-0.98 2.09,-0.64 2.20,-0.29 2.19,0.05 2.18,0.41 2.05,0.75 1.93,1.09 1.70,1.37 1.48,1.65 1.18,1.84 0.87,2.04 0.52,2.12 0.18,2.21 -0.17,2.18 -0.53,2.15 -0.86,2.01 -1.19,1.87 -1.46,1.63 -1.73,1.39 -1.90,1.07 -2.08,0.76 -2.15,0.41 -2.21,0.05 -2.17,-0.29 -2.12,-0.65 -1.96,-0.97 -1.80,-1.29 -1.54,-1.54 -1.29,-1.80 -0.97,-1.96 -0.65,-2.12 -0.29,-2.17 0.06,-2.21 0.41,-2.15 0.76,-2.08 1.07,-1.90 1.39,-1.73 1.63,-1.46 1.87,-1.19 2.01,-0.86 2.15,-0.53 2.18,-0.17 2.21,0.18 2.12,0.52 2.03,0.87 1.84,1.18 1.65,1.48 1.37,1.70 1.09,1.93 0.75,2.05 0.41,2.18 0.05,2.19 -0.30,2.20 -0.64,2.09 -0.98,1.98 -1.27,1.77 -1.57,1.56 -1.57,1.57 -1.57,1.57 -1.73,1.35 -1.90,1.14 -2.01,0.90 -2.12,0.66 -2.16,0.39 -2.21,0.13 -2.20,-0.13 -2.18,-0.40 -2.10,-0.65 -2.02,-0.91 -1.88,-1.14 -1.74,-1.36 -1.55,-1.55 -1.36,-1.74 -1.14,-1.88 -0.91,-2.02 -0.65,-2.10 -0.40,-2.18 -0.13,-2.20 0.13,-2.21 0.39,-2.16 0.66,-2.12 0.90,-2.01 1.14,-1.90 1.35,-1.73 1.57,-1.57 1.57,-1.57 L 1.57,-1.57 Z"></path></g><g transform="translate(796 143) rotate(0 0.00005000000000165983 0.00005000000000165983)" stroke="none"><path fill="#1971c2" d="M 1.57,-1.57 Q 1.57,-1.57 1.77,-1.27 1.98,-0.98 2.09,-0.64 2.20,-0.29 2.19,0.05 2.18,0.41 2.05,0.75 1.93,1.09 1.70,1.37 1.48,1.65 1.18,1.84 0.87,2.04 0.52,2.12 0.18,2.21 -0.17,2.18 -0.53,2.15 -0.86,2.01 -1.19,1.87 -1.46,1.63 -1.73,1.39 -1.90,1.07 -2.08,0.76 -2.15,0.41 -2.21,0.05 -2.17,-0.29 -2.12,-0.65 -1.96,-0.97 -1.80,-1.29 -1.54,-1.54 -1.29,-1.80 -0.97,-1.96 -0.65,-2.12 -0.29,-2.17 0.06,-2.21 0.41,-2.15 0.76,-2.08 1.07,-1.90 1.39,-1.73 1.63,-1.46 1.87,-1.19 2.01,-0.86 2.15,-0.53 2.18,-0.17 2.21,0.18 2.12,0.52 2.03,0.87 1.84,1.18 1.65,1.48 1.37,1.70 1.09,1.93 0.75,2.05 0.41,2.18 0.05,2.19 -0.30,2.20 -0.64,2.09 -0.98,1.98 -1.27,1.77 -1.57,1.56 -1.57,1.57 -1.57,1.57 -1.73,1.35 -1.90,1.14 -2.01,0.90 -2.12,0.66 -2.16,0.39 -2.21,0.13 -2.20,-0.13 -2.18,-0.40 -2.10,-0.65 -2.02,-0.91 -1.88,-1.14 -1.74,-1.36 -1.55,-1.55 -1.36,-1.74 -1.14,-1.88 -0.91,-2.02 -0.65,-2.10 -0.40,-2.18 -0.13,-2.20 0.13,-2.21 0.39,-2.16 0.66,-2.12 0.90,-2.01 1.14,-1.90 1.35,-1.73 1.57,-1.57 1.57,-1.57 L 1.57,-1.57 Z"></path></g><g transform="translate(851 119) rotate(0 -1 3.5)" stroke="none"><path fill="#1971c2" d="M 2.17,0.72 Q 2.17,0.72 1.32,3.82 0.48,6.91 0.33,7.27 0.18,7.62 -0.07,7.92 -0.33,8.21 -0.66,8.40 -1.00,8.59 -1.38,8.67 -1.76,8.74 -2.14,8.70 -2.52,8.65 -2.87,8.48 -3.22,8.31 -3.50,8.04 -3.77,7.77 -3.95,7.42 -4.12,7.08 -4.18,6.69 -4.23,6.31 -4.16,5.93 -4.09,5.55 -3.91,5.21 -3.72,4.87 -3.43,4.61 -3.15,4.35 -2.79,4.19 -2.44,4.04 -2.05,4.00 -1.67,3.97 -1.29,4.06 -0.91,4.15 -0.59,4.35 -0.26,4.56 -0.01,4.86 0.22,5.16 0.36,5.52 0.49,5.88 0.51,6.27 0.52,6.66 0.41,7.03 0.30,7.40 0.08,7.71 -0.14,8.03 -0.45,8.26 -0.76,8.49 -1.13,8.61 -1.50,8.72 -1.89,8.71 -2.27,8.71 -2.64,8.58 -3.00,8.45 -3.31,8.21 -3.61,7.97 -3.82,7.64 -4.03,7.32 -4.13,6.94 -4.22,6.57 -4.20,6.18 -4.17,5.80 -4.17,5.80 -4.17,5.80 -3.17,2.53 -2.17,-0.72 -2.05,-0.97 -1.93,-1.22 -1.76,-1.43 -1.58,-1.65 -1.36,-1.81 -1.14,-1.98 -0.89,-2.09 -0.63,-2.20 -0.36,-2.24 -0.09,-2.29 0.18,-2.26 0.45,-2.24 0.71,-2.15 0.98,-2.07 1.21,-1.92 1.44,-1.77 1.64,-1.57 1.83,-1.37 1.97,-1.13 2.10,-0.89 2.18,-0.63 2.26,-0.36 2.27,-0.09 2.28,0.18 2.23,0.45 2.17,0.72 2.17,0.72 L 2.17,0.72 Z"></path></g><g transform="translate(705 239) rotate(0 0.00005000000000165983 0.00005000000000165983)" stroke="none"><path fill="#1971c2" d="M 1.57,-1.57 Q 1.57,-1.57 1.77,-1.27 1.98,-0.98 2.09,-0.64 2.20,-0.29 2.19,0.05 2.18,0.41 2.05,0.75 1.93,1.09 1.70,1.37 1.48,1.65 1.18,1.84 0.87,2.04 0.52,2.12 0.18,2.21 -0.17,2.18 -0.53,2.15 -0.86,2.01 -1.19,1.87 -1.46,1.63 -1.73,1.39 -1.90,1.07 -2.08,0.76 -2.15,0.41 -2.21,0.05 -2.17,-0.29 -2.12,-0.65 -1.96,-0.97 -1.80,-1.29 -1.54,-1.54 -1.29,-1.80 -0.97,-1.96 -0.65,-2.12 -0.29,-2.17 0.06,-2.21 0.41,-2.15 0.76,-2.08 1.07,-1.90 1.39,-1.73 1.63,-1.46 1.87,-1.19 2.01,-0.86 2.15,-0.53 2.18,-0.17 2.21,0.18 2.12,0.52 2.03,0.87 1.84,1.18 1.65,1.48 1.37,1.70 1.09,1.93 0.75,2.05 0.41,2.18 0.05,2.19 -0.30,2.20 -0.64,2.09 -0.98,1.98 -1.27,1.77 -1.57,1.56 -1.57,1.57 -1.57,1.57 -1.73,1.35 -1.90,1.14 -2.01,0.90 -2.12,0.66 -2.16,0.39 -2.21,0.13 -2.20,-0.13 -2.18,-0.40 -2.10,-0.65 -2.02,-0.91 -1.88,-1.14 -1.74,-1.36 -1.55,-1.55 -1.36,-1.74 -1.14,-1.88 -0.91,-2.02 -0.65,-2.10 -0.40,-2.18 -0.13,-2.20 0.13,-2.21 0.39,-2.16 0.66,-2.12 0.90,-2.01 1.14,-1.90 1.35,-1.73 1.57,-1.57 1.57,-1.57 L 1.57,-1.57 Z"></path></g><g transform="translate(226 185) rotate(0 0.00004999999998744897 0.00005000000000165983)" stroke="none"><path fill="#1971c2" d="M 1.57,-1.57 Q 1.57,-1.57 1.77,-1.27 1.98,-0.98 2.09,-0.64 2.20,-0.29 2.19,0.05 2.18,0.41 2.05,0.75 1.93,1.09 1.70,1.37 1.48,1.65 1.18,1.84 0.87,2.04 0.52,2.12 0.18,2.21 -0.17,2.18 -0.53,2.15 -0.86,2.01 -1.19,1.87 -1.46,1.63 -1.73,1.39 -1.90,1.07 -2.08,0.76 -2.15,0.41 -2.21,0.05 -2.17,-0.29 -2.12,-0.65 -1.96,-0.97 -1.80,-1.29 -1.54,-1.54 -1.29,-1.80 -0.97,-1.96 -0.65,-2.12 -0.29,-2.17 0.06,-2.21 0.41,-2.15 0.76,-2.08 1.07,-1.90 1.39,-1.73 1.63,-1.46 1.87,-1.19 2.01,-0.86 2.15,-0.53 2.18,-0.17 2.21,0.18 2.12,0.52 2.03,0.87 1.84,1.18 1.65,1.48 1.37,1.70 1.09,1.93 0.75,2.05 0.41,2.18 0.05,2.19 -0.30,2.20 -0.64,2.09 -0.98,1.98 -1.27,1.77 -1.57,1.56 -1.57,1.57 -1.57,1.57 -1.73,1.35 -1.90,1.14 -2.01,0.90 -2.12,0.66 -2.16,0.39 -2.21,0.13 -2.20,-0.13 -2.18,-0.40 -2.10,-0.65 -2.02,-0.91 -1.88,-1.14 -1.74,-1.36 -1.55,-1.55 -1.36,-1.74 -1.14,-1.88 -0.91,-2.02 -0.65,-2.10 -0.40,-2.18 -0.13,-2.20 0.13,-2.21 0.39,-2.16 0.66,-2.12 0.90,-2.01 1.14,-1.90 1.35,-1.73 1.57,-1.57 1.57,-1.57 L 1.57,-1.57 Z"></path></g><g transform="translate(244 200) rotate(0 2.5 -1)" stroke="none"><path fill="#1971c2" d="M -0.57,-2.30 Q -0.57,-2.30 1.39,-3.11 3.36,-3.91 3.74,-4.04 4.11,-4.17 4.51,-4.17 4.91,-4.16 5.29,-4.04 5.66,-3.91 5.98,-3.67 6.30,-3.43 6.52,-3.10 6.74,-2.77 6.85,-2.38 6.95,-2.00 6.93,-1.60 6.91,-1.20 6.76,-0.83 6.61,-0.47 6.35,-0.16 6.10,0.13 5.75,0.33 5.41,0.54 5.02,0.62 4.64,0.71 4.24,0.67 3.84,0.62 3.48,0.45 3.12,0.29 2.83,0.01 2.55,-0.25 2.36,-0.60 2.17,-0.96 2.11,-1.35 2.05,-1.74 2.11,-2.14 2.18,-2.53 2.36,-2.88 2.55,-3.23 2.84,-3.50 3.13,-3.78 3.49,-3.94 3.85,-4.11 4.25,-4.15 4.65,-4.19 5.03,-4.11 5.42,-4.02 5.76,-3.82 6.10,-3.61 6.36,-3.31 6.62,-3.00 6.76,-2.63 6.91,-2.26 6.93,-1.86 6.95,-1.47 6.84,-1.08 6.74,-0.70 6.51,-0.37 6.29,-0.04 5.97,0.19 5.65,0.43 5.66,0.43 5.66,0.43 3.11,1.36 0.57,2.30 0.29,2.34 0.00,2.37 -0.27,2.34 -0.56,2.30 -0.82,2.20 -1.09,2.10 -1.33,1.94 -1.56,1.78 -1.76,1.56 -1.95,1.35 -2.08,1.10 -2.21,0.84 -2.28,0.57 -2.35,0.29 -2.35,0.00 -2.35,-0.27 -2.29,-0.55 -2.22,-0.83 -2.09,-1.08 -1.95,-1.34 -1.77,-1.55 -1.58,-1.77 -1.34,-1.93 -1.11,-2.10 -0.84,-2.20 -0.57,-2.30 -0.57,-2.30 L -0.57,-2.30 Z"></path></g><g transform="translate(253 184) rotate(0 0 -0.5)" stroke="none"><path fill="#1971c2" d="M -2.33,-0.57 Q -2.33,-0.57 -2.27,-0.94 -2.21,-1.32 -2.03,-1.65 -1.85,-1.98 -1.58,-2.24 -1.31,-2.50 -0.96,-2.66 -0.62,-2.82 -0.24,-2.86 0.12,-2.90 0.49,-2.82 0.86,-2.74 1.18,-2.54 1.51,-2.35 1.75,-2.06 2.00,-1.77 2.14,-1.42 2.28,-1.07 2.30,-0.69 2.32,-0.32 2.22,0.04 2.11,0.40 1.90,0.71 1.69,1.03 1.39,1.25 1.09,1.48 0.73,1.60 0.37,1.72 -0.00,1.72 -0.37,1.72 -0.73,1.60 -1.09,1.48 -1.39,1.25 -1.69,1.03 -1.90,0.71 -2.11,0.40 -2.22,0.04 -2.32,-0.32 -2.30,-0.70 -2.28,-1.07 -2.14,-1.42 -2.00,-1.77 -1.75,-2.06 -1.51,-2.35 -1.18,-2.54 -0.86,-2.74 -0.49,-2.82 -0.12,-2.90 0.24,-2.86 0.62,-2.82 0.96,-2.66 1.31,-2.50 1.58,-2.24 1.85,-1.98 2.03,-1.65 2.21,-1.31 2.27,-0.94 2.33,-0.57 2.33,-0.57 2.33,-0.57 2.37,-0.28 2.40,0.00 2.36,0.28 2.33,0.57 2.23,0.84 2.12,1.11 1.96,1.35 1.79,1.59 1.58,1.78 1.36,1.97 1.10,2.11 0.85,2.24 0.57,2.31 0.28,2.38 -0.00,2.38 -0.29,2.38 -0.57,2.31 -0.85,2.24 -1.11,2.11 -1.36,1.97 -1.58,1.78 -1.80,1.59 -1.96,1.35 -2.12,1.11 -2.23,0.84 -2.33,0.57 -2.33,-0.00 L -2.33,-0.57 Z"></path></g></svg>